<?xml version="1.0" encoding="UTF-8"?><svg id="Laag_1" xmlns="http://www.w3.org/2000/svg" viewBox="0 0 161.86 124.15"><path d="m15.99,114.04l-2.77-7c-.63-1.59-1.05-3.03-1.47-4.44h-.08c-.42,1.44-.88,2.92-1.43,4.4l-2.77,7.04h8.52Zm-9.27,2.45l-2.94,7.65H0l9.61-24.32h4.4l9.65,24.32h-3.9l-3.02-7.65H6.71Z" style="fill:#706f6f;"/><path d="m39.86,111.23h3.73c3.9,0,6.38-1.84,6.38-4.62,0-3.14-2.64-4.51-6.5-4.55-1.76,0-3.02.14-3.61.29v8.88Zm-3.65-11.08c1.85-.32,4.49-.5,7.01-.5,3.9,0,6.42.61,8.18,1.98,1.43,1.08,2.22,2.74,2.22,4.62,0,3.21-2.35,5.34-5.33,6.21v.11c2.18.65,3.48,2.38,4.15,4.91.92,3.39,1.59,5.74,2.18,6.68h-3.78c-.46-.69-1.09-2.78-1.89-5.81-.84-3.36-2.35-4.62-5.66-4.73h-3.44v10.54h-3.65v-24Z" style="fill:#706f6f;"/><path d="m67.17,99.82h3.65v11.73h.13c.76-.94,1.51-1.8,2.22-2.6l8.64-9.13h4.53l-10.24,10.32,11.03,14h-4.32l-9.31-11.94-2.68,2.67v9.27h-3.65v-24.32Z" style="fill:#706f6f;"/><rect x="98.3" y="99.82" width="3.65" height="24.32" style="fill:#706f6f;"/><polygon points="122.08 102.49 113.49 102.49 113.49 99.82 134.42 99.82 134.42 102.49 125.78 102.49 125.78 124.15 122.08 124.15 122.08 102.49" style="fill:#706f6f;"/><polygon points="160.6 112.74 149.61 112.74 149.61 121.51 161.86 121.51 161.86 124.15 145.96 124.15 145.96 99.82 161.23 99.82 161.23 102.46 149.61 102.46 149.61 110.14 160.6 110.14 160.6 112.74" style="fill:#706f6f;"/><path d="m51.9,0c-7.38,8.06-12.74,18.75-12.74,33.64s5.56,25.17,12.74,33.39h-6.98c-6.37-6.82-13.25-17.35-13.25-33.39C31.78,17.43,38.55,6.91,44.92,0h6.98Z" style="fill:#706f6f;"/><path d="m110.05,67.04c7.18-8.14,12.74-18.83,12.74-33.64s-5.46-25.25-12.74-33.4h6.88c6.47,6.75,13.25,17.27,13.25,33.48s-6.78,26.57-13.25,33.56h-6.88Z" style="fill:#706f6f;"/><path d="m90.4,33.52c0,5.66-4.59,10.25-10.25,10.25s-10.24-4.59-10.24-10.25,4.59-10.24,10.24-10.24,10.25,4.59,10.25,10.24" style="fill:#0060a8;"/></svg>