<svg width="140" height="20" viewBox="0 0 140 20" fill="none" xmlns="http://www.w3.org/2000/svg">
<path d="M53.4619 13.0906C53.4619 15.4388 52.0041 16.9564 49.7473 16.9564C47.4904 16.9564 46.0585 15.4748 46.0585 13.0906V0.628906H43.0818V13.2191C43.0818 15.0556 43.7617 16.708 44.996 17.8739C46.2067 19.017 47.8943 19.647 49.7481 19.647C53.6258 19.647 56.4394 16.9431 56.4394 13.2183V0.628906H53.4627V13.0906H53.4619Z" fill="#4B3BFF"/>
<path d="M96.4599 0.630859V13.0902C96.4599 15.4384 95.0021 16.956 92.7453 16.956C90.4884 16.956 89.0565 15.4744 89.0565 13.0902V0.630859H86.079V13.2187C86.079 15.0552 86.7589 16.7077 87.9932 17.8735C89.2039 19.0166 90.8915 19.6466 92.7453 19.6466C96.6222 19.6466 99.4366 16.9427 99.4366 13.2179V0.630859H96.4599Z" fill="#4B3BFF"/>
<path d="M79.5828 0.654297H76.559H76.5574V0.656647L71.2627 9.93886L65.9899 0.654297H62.9637V19.5713H65.9899V6.14433L71.2737 15.2926L76.5574 6.11143V19.5713H79.5828V0.654297Z" fill="#4B3BFF"/>
<path d="M118.785 0.654297H104.975V3.43418H109.723V19.5713H112.748V3.43418H117.176L118.785 0.654297Z" fill="#4B3BFF"/>
<path d="M3.19865 19.571L5.35435 15.8415H16.8582L19.0131 19.571H22.2118L11.2372 0.57878L11.1063 0.351562L0 19.571H3.19865ZM11.1063 5.88783L15.1393 12.8665H7.07326L11.1063 5.88783Z" fill="#4B3BFF"/>
<path d="M120.885 19.571L123.04 15.8415H134.544L136.699 19.571H139.898L128.923 0.577996L128.792 0.351562L117.742 19.4746L117.687 19.571H120.885H120.885ZM128.792 5.88783L132.824 12.8665H124.759L128.792 5.88783Z" fill="#4B3BFF"/>
<path d="M37.3972 16.7914H29.3319L38.6425 0.654297H24.8912L26.483 3.43418H33.8378L24.5132 19.5713H38.9953L37.3972 16.7914Z" fill="#4B3BFF"/>
</svg>
