<svg width="160" height="50" viewBox="0 0 160 50" fill="none" xmlns="http://www.w3.org/2000/svg">
  <path
    d="M9.8113 19.028V36.8411C4.07012 37.0123 0.623517 33.394 0.5 28.6656V10.346C6.49771 10.346 9.8113 13.66 9.8113 19.028Z"
    fill="#0069CC" />
  <path
    d="M0.5 4.16266C0.5 6.46152 2.36226 8.32532 4.66158 8.32532C6.95615 8.32532 8.82079 6.46152 8.82079 4.16266C8.82079 1.86381 6.95615 0 4.66158 0C2.36226 0 0.5 1.86381 0.5 4.16266Z"
    fill="#0069CC" />
  <path
    d="M21.068 31.5088V49.322C15.3245 49.4908 11.8731 45.8773 11.752 41.1488V22.8245C17.7497 22.8245 21.068 26.1385 21.068 31.5088Z"
    fill="#FF7200" />
  <path
    d="M11.645 16.6435C11.645 18.9424 13.5049 20.8062 15.8066 20.8062C18.1012 20.8062 19.9658 18.9424 19.9658 16.6435C19.9658 14.3423 18.1012 12.4785 15.8066 12.4785C13.5073 12.4785 11.645 14.3423 11.645 16.6435Z"
    fill="#FF7200" />
  <path
    d="M32.0966 25.2304V43.0412C26.3531 43.2123 22.9089 39.5964 22.7853 34.868V16.5461C28.7831 16.5461 32.0966 19.86 32.0966 25.2304Z"
    fill="#0069CC" />
  <path
    d="M22.7853 10.3651C22.7853 12.6639 24.6452 14.5277 26.9469 14.5277C29.2415 14.5277 31.1061 12.6639 31.1061 10.3651C31.1061 8.0662 29.2415 6.20239 26.9469 6.20239C24.6452 6.20002 22.7853 8.06382 22.7853 10.3651Z"
    fill="#0069CC" />
  <path d="M116.034 17.3876H111.979V35.3077H116.034V17.3876Z" fill="#1D1D1B" />
  <path
    d="M96.6131 31.5017C94.5394 31.5017 93.5726 30.4818 93.5726 28.2947V20.4448H97.5775V16.5247H93.5726V11.8461H89.5536V28.2971C89.5536 32.5929 92.1118 35.3672 96.0715 35.3672C96.4183 35.3672 96.777 35.3458 97.138 35.303L97.6463 35.2436V31.4518L97.0359 31.4898C96.8934 31.4993 96.7532 31.5017 96.6131 31.5017Z"
    fill="#1D1D1B" />
  <path
    d="M108.003 16.1133C103.319 16.1133 100.169 19.3845 100.169 24.2556V35.3101H104.19V24.189C104.19 21.4861 105.677 20.0002 108.376 20.0002C108.611 20.0002 108.858 20.0097 109.107 20.0335L109.734 20.0906V16.2465L109.226 16.187C108.818 16.1395 108.404 16.1133 108.003 16.1133Z"
    fill="#1D1D1B" />
  <path
    d="M82.5036 29.6331C81.5653 31.1308 80.0831 31.9344 78.1472 31.9344C75.8289 31.9344 73.3206 30.3297 72.7196 27.2606H87.4419L87.4443 26.69C87.4609 23.571 86.3968 20.7729 84.4466 18.8116C82.696 17.0477 80.4014 16.0801 77.9762 16.0801C72.7742 16.0801 68.5438 20.5019 68.5438 25.934C68.5438 31.4209 72.7624 35.719 78.1472 35.719C82.3967 35.719 85.5844 33.5034 86.9312 29.6355H82.5036V29.6331ZM77.9762 19.8648C80.1259 19.8648 82.0546 21.3316 82.8765 23.5092H73.0094C73.9191 21.1129 76.1139 19.8648 77.9762 19.8648Z"
    fill="#1D1D1B" />
  <path
    d="M59.2967 16.0801C57.1351 16.0801 55.2491 16.9692 53.9997 18.5454C52.7787 16.9692 50.9022 16.0801 48.7264 16.0801C44.4865 16.0801 41.4128 19.173 41.4128 23.4355V35.3101H45.4675V23.3309C45.4675 21.2769 46.7763 19.8981 48.7264 19.8981C50.6742 19.8981 51.983 21.2769 51.983 23.3309V35.3101H56.0377V23.3309C56.0377 21.2769 57.3465 19.8981 59.2943 19.8981C61.2444 19.8981 62.5556 21.2769 62.5556 23.3309V35.3101H66.6079V23.4355C66.6079 19.173 63.5319 16.0801 59.2967 16.0801Z"
    fill="#1D1D1B" />
  <path
    d="M144.956 16.0801C139.664 16.0801 135.519 20.4234 135.519 25.9673C135.519 31.4541 139.664 35.7523 144.956 35.7523C150.246 35.7523 154.391 31.4541 154.391 25.9673C154.391 20.4234 150.246 16.0801 144.956 16.0801ZM144.956 31.7989C142.008 31.7989 139.609 29.1814 139.609 25.9673C139.609 22.6771 142.008 20.0003 144.956 20.0003C147.923 20.0003 150.336 22.6771 150.336 25.9673C150.334 29.1814 147.923 31.7989 144.956 31.7989Z"
    fill="#1D1D1B" />
  <path d="M133.402 11.8461H129.347V15.7116H133.402V11.8461Z" fill="#1D1D1B" />
  <path
    d="M126.236 31.428C124.07 31.428 123.062 30.401 123.062 28.1925V11.8461H119.043V28.2971C119.043 32.5929 121.611 35.3672 125.59 35.3672C125.937 35.3672 126.3 35.3458 126.663 35.303L127.172 35.2436V31.3923L126.571 31.4209C126.457 31.4256 126.345 31.428 126.236 31.428Z"
    fill="#1D1D1B" />
  <path d="M116.034 11.8461H111.979V15.7116H116.034V11.8461Z" fill="#1D1D1B" />
  <path d="M133.402 17.3876H129.347V35.3077H133.402V17.3876Z" fill="#1D1D1B" />
  <path
    d="M155.479 16.1205V13.3842H156.64C156.932 13.3842 157.144 13.408 157.274 13.4579C157.407 13.5079 157.512 13.5958 157.595 13.7194C157.673 13.8454 157.711 13.9881 157.711 14.1497C157.711 14.3542 157.652 14.523 157.531 14.6585C157.41 14.794 157.232 14.8772 156.992 14.9105C157.11 14.9794 157.208 15.0555 157.286 15.1411C157.362 15.2243 157.467 15.3717 157.6 15.5833L157.935 16.1181H157.274L156.875 15.5214C156.735 15.3099 156.638 15.1767 156.585 15.1197C156.531 15.065 156.476 15.027 156.417 15.0056C156.36 14.9866 156.265 14.9747 156.141 14.9747H156.03V16.1158L155.479 16.1205ZM156.03 14.542H156.438C156.704 14.542 156.868 14.5301 156.932 14.5087C156.999 14.4873 157.051 14.4469 157.087 14.3922C157.125 14.3375 157.144 14.2686 157.144 14.1878C157.144 14.0951 157.118 14.0214 157.068 13.9643C157.02 13.9073 156.951 13.8716 156.861 13.855C156.818 13.8478 156.683 13.8454 156.46 13.8454H156.027L156.03 14.542Z"
    fill="#1D1D1B" />
  <path
    d="M156.597 17.6586C154.996 17.6586 153.692 16.3559 153.692 14.7512C153.692 13.1489 154.996 11.8461 156.597 11.8461C158.196 11.8461 159.5 13.1489 159.5 14.7512C159.5 16.3535 158.198 17.6586 156.597 17.6586ZM156.597 12.2645C155.224 12.2645 154.11 13.3819 154.11 14.7512C154.11 16.1229 155.227 17.2402 156.597 17.2402C157.968 17.2402 159.084 16.1229 159.084 14.7512C159.084 13.3819 157.968 12.2645 156.597 12.2645Z"
    fill="#1D1D1B" />
  <path
    d="M41.8427 38.4624C41.7168 38.3412 41.6526 38.1843 41.6526 37.9893C41.6526 37.7968 41.7168 37.6399 41.8427 37.521C41.9686 37.4021 42.1348 37.3427 42.3415 37.3427C42.5458 37.3427 42.7097 37.4021 42.8332 37.521C42.9591 37.6399 43.0208 37.7968 43.0208 37.9893C43.0208 38.1843 42.9567 38.3412 42.8308 38.4624C42.7049 38.5837 42.5386 38.6431 42.3367 38.6431C42.1348 38.6431 41.9686 38.5837 41.8427 38.4624ZM41.9163 44.118C41.807 44.0039 41.7524 43.8423 41.7524 43.6331V40.243C41.7524 40.0338 41.807 39.8698 41.9163 39.7557C42.0256 39.6392 42.1657 39.5821 42.3367 39.5821C42.5078 39.5821 42.6503 39.6392 42.7619 39.7557C42.8736 39.8722 42.9282 40.0338 42.9282 40.243V43.6331C42.9282 43.8399 42.8712 44.0015 42.7619 44.118C42.6527 44.2345 42.5101 44.2916 42.3367 44.2916C42.1633 44.2916 42.0256 44.2321 41.9163 44.118Z"
    fill="#1D1D1B" />
  <path
    d="M44.3321 44.1181C44.2228 44.004 44.1682 43.8447 44.1682 43.6426V40.1741C44.1682 39.9863 44.2252 39.8413 44.3368 39.7391C44.4484 39.6345 44.591 39.5845 44.7644 39.5845C44.933 39.5845 45.0732 39.6345 45.1824 39.7367C45.2917 39.8389 45.3463 39.9816 45.3463 40.167V40.331C45.4841 40.0648 45.6836 39.8627 45.9497 39.7248C46.2133 39.5869 46.5292 39.518 46.895 39.518C47.1207 39.518 47.3321 39.556 47.5292 39.6273C47.7264 39.6987 47.9045 39.808 48.0613 39.9506C48.2181 40.0933 48.3416 40.2835 48.4319 40.5164C48.5221 40.7518 48.5673 41.0204 48.5673 41.32V43.645C48.5673 43.847 48.5103 44.0063 48.3986 44.1204C48.287 44.2345 48.1421 44.2916 47.9663 44.2916C47.8 44.2916 47.6623 44.2345 47.553 44.1204C47.4437 44.0063 47.3891 43.847 47.3891 43.645V41.3176C47.3891 40.9967 47.306 40.7494 47.1373 40.5783C46.971 40.4071 46.7573 40.3215 46.4984 40.3215C46.1848 40.3215 45.914 40.4451 45.686 40.6924C45.458 40.9396 45.3439 41.2629 45.3439 41.6599V43.645C45.3439 43.847 45.2869 44.0063 45.1777 44.1204C45.066 44.2345 44.9259 44.2916 44.7525 44.2916C44.5791 44.2916 44.4413 44.2322 44.3321 44.1181Z"
    fill="#1D1D1B" />
  <path
    d="M49.9805 44.1181C49.8712 44.004 49.8166 43.8447 49.8166 43.6426V40.1741C49.8166 39.9863 49.8736 39.8413 49.9852 39.7391C50.0969 39.6345 50.2394 39.5845 50.4128 39.5845C50.5814 39.5845 50.7216 39.6345 50.8309 39.7367C50.9401 39.8389 50.9948 39.9816 50.9948 40.167V40.331C51.1325 40.0648 51.3321 39.8627 51.5981 39.7248C51.8618 39.5869 52.1777 39.518 52.5435 39.518C52.7691 39.518 52.9805 39.556 53.1777 39.6273C53.3772 39.701 53.553 39.808 53.7098 39.9506C53.8665 40.0933 53.9901 40.2835 54.0803 40.5164C54.1706 40.7518 54.2157 41.0204 54.2157 41.32V43.645C54.2157 43.847 54.1587 44.0063 54.0471 44.1204C53.9354 44.2345 53.7905 44.2916 53.6147 44.2916C53.4485 44.2916 53.3107 44.2345 53.2014 44.1204C53.0922 44.0063 53.0375 43.847 53.0375 43.645V41.3176C53.0375 40.9967 52.9544 40.7494 52.7858 40.5783C52.6195 40.4071 52.4057 40.3215 52.1468 40.3215C51.8332 40.3215 51.5625 40.4451 51.3344 40.6924C51.1064 40.9396 50.9924 41.2629 50.9924 41.6599V43.645C50.9924 43.847 50.9354 44.0063 50.8261 44.1204C50.7145 44.2345 50.5743 44.2916 50.4009 44.2916C50.2275 44.2916 50.0898 44.2322 49.9805 44.1181Z"
    fill="#1D1D1B" />
  <path
    d="M56.5792 44.1442C56.2585 44.0111 55.9996 43.828 55.8072 43.5998C55.6148 43.3716 55.4676 43.1148 55.3678 42.8343C55.268 42.5538 55.2181 42.2543 55.2181 41.9381C55.2181 41.6885 55.249 41.446 55.3108 41.213C55.3725 40.98 55.4676 40.7613 55.5982 40.5545C55.7288 40.3477 55.8904 40.167 56.078 40.0148C56.268 39.8627 56.4984 39.7414 56.7716 39.6511C57.0448 39.5608 57.3464 39.518 57.6742 39.518C57.9949 39.518 58.2918 39.5608 58.5626 39.6464C58.8334 39.7319 59.0638 39.8508 59.2538 40.0006C59.4439 40.148 59.6078 40.3263 59.7408 40.5307C59.8762 40.7352 59.9736 40.9586 60.0377 41.194C60.1018 41.4317 60.1327 41.6813 60.1327 41.9404C60.1327 42.1877 60.1018 42.4254 60.0424 42.6536C59.9807 42.8819 59.8857 43.1006 59.755 43.3098C59.6244 43.519 59.4652 43.6973 59.2776 43.8494C59.0876 44.0016 58.8571 44.1228 58.5816 44.2132C58.3061 44.3035 58.0044 44.3487 57.6719 44.3487C57.2657 44.3463 56.8999 44.2797 56.5792 44.1442ZM58.6244 43.122C58.85 42.8414 58.9617 42.4468 58.9617 41.9381C58.9617 41.427 58.85 41.0299 58.6244 40.747C58.3987 40.4641 58.0828 40.3191 57.6766 40.3191C57.2704 40.3191 56.9545 40.4618 56.7312 40.7447C56.5079 41.0276 56.3963 41.4246 56.3963 41.9381C56.3963 42.4444 56.5079 42.8391 56.7336 43.122C56.9593 43.4025 57.2728 43.5428 57.6766 43.5428C58.0828 43.5428 58.3987 43.4025 58.6244 43.122Z"
    fill="#1D1D1B" />
  <path
    d="M62.4985 44.1133C62.3584 43.9778 62.2206 43.7329 62.09 43.3787L60.8429 40.3405C60.812 40.2644 60.7954 40.1883 60.7954 40.1051C60.7954 39.953 60.8524 39.8246 60.9641 39.72C61.0757 39.6154 61.204 39.5655 61.3489 39.5655C61.4581 39.5655 61.5579 39.5988 61.6505 39.663C61.7408 39.7295 61.812 39.8294 61.8619 39.9649L63.09 43.0958L64.318 39.9649C64.3679 39.8294 64.4392 39.7295 64.5294 39.663C64.6197 39.5988 64.7195 39.5655 64.8287 39.5655C64.9736 39.5655 65.0995 39.6154 65.2135 39.72C65.3275 39.8246 65.3822 39.953 65.3822 40.1051C65.3822 40.186 65.3656 40.2644 65.3347 40.3405L64.0829 43.3787C63.9522 43.7329 63.8168 43.9754 63.6767 44.1133C63.5365 44.2488 63.3418 44.3177 63.0876 44.3177C62.8334 44.3177 62.6387 44.2488 62.4985 44.1133Z"
    fill="#1D1D1B" />
  <path
    d="M66.4226 43.9873C66.1185 43.752 65.9665 43.4215 65.9665 43.0007C65.9665 42.8129 65.9855 42.6465 66.0259 42.5063C66.0663 42.3636 66.1209 42.2424 66.1898 42.1378C66.261 42.0332 66.3608 41.9476 66.4867 41.8739C66.615 41.8026 66.7504 41.7431 66.8952 41.698C67.0401 41.6528 67.2207 41.6171 67.4416 41.591C67.6625 41.5672 67.8834 41.5506 68.109 41.5411C68.3347 41.5339 68.6055 41.5292 68.9262 41.5292V41.1678C68.9262 40.873 68.8573 40.6591 68.7171 40.5236C68.577 40.3881 68.3703 40.3191 68.0948 40.3191C68.0354 40.3191 67.976 40.3215 67.9143 40.3263C67.8525 40.331 67.7907 40.3382 67.729 40.35C67.6672 40.3595 67.6126 40.3714 67.5651 40.3786C67.5176 40.3881 67.463 40.4 67.3964 40.419C67.3323 40.438 67.2801 40.4523 67.2468 40.4594C67.2135 40.4689 67.1613 40.4855 67.0972 40.5093C67.033 40.5331 66.9903 40.5474 66.9713 40.5545C66.9523 40.5616 66.9095 40.5759 66.8454 40.6044C66.7812 40.6306 66.7456 40.6448 66.7432 40.6448C66.71 40.6591 66.6648 40.6686 66.6126 40.6686C66.5033 40.6686 66.4107 40.621 66.3323 40.5283C66.2563 40.438 66.2183 40.3334 66.2183 40.2169C66.2183 40.0648 66.2872 39.9554 66.4249 39.8888C66.9428 39.644 67.52 39.5227 68.1565 39.5227C68.444 39.5227 68.7029 39.556 68.9309 39.6226C69.1589 39.6891 69.3608 39.7914 69.5366 39.9269C69.7124 40.0648 69.8478 40.2502 69.9428 40.4855C70.0378 40.7185 70.0853 40.9967 70.0853 41.3152V43.6997C70.0853 43.8875 70.0307 44.0325 69.9214 44.1347C69.8122 44.2369 69.6791 44.2892 69.5271 44.2892C69.3751 44.2892 69.2421 44.2369 69.1304 44.1347C69.0188 44.0325 68.9642 43.8851 68.9642 43.6997V43.5451C68.8644 43.7829 68.7029 43.9778 68.4796 44.1252C68.2563 44.275 67.9618 44.3487 67.6007 44.3487C67.1162 44.3439 66.7266 44.225 66.4226 43.9873ZM68.558 43.2337C68.7979 42.9865 68.919 42.6727 68.919 42.2947V42.1592C68.6055 42.1592 68.3585 42.1639 68.1756 42.1734C67.9927 42.1829 67.8193 42.202 67.6554 42.2281C67.4915 42.2543 67.3703 42.2971 67.2919 42.3541C67.2135 42.4112 67.1518 42.4872 67.109 42.58C67.0639 42.6727 67.0425 42.7892 67.0425 42.9342C67.0425 43.1529 67.1067 43.3193 67.2325 43.4334C67.3584 43.5475 67.5271 43.6046 67.7361 43.6046C68.0449 43.6046 68.3181 43.4809 68.558 43.2337Z"
    fill="#1D1D1B" />
  <path
    d="M72.0783 43.9398C71.8383 43.6806 71.7196 43.3098 71.7196 42.8248V40.3976H71.2659C71.1305 40.3976 71.0284 40.3619 70.9547 40.2882C70.8811 40.2145 70.8455 40.1171 70.8455 39.9958C70.8455 39.8817 70.8787 39.7866 70.95 39.7177C71.0189 39.6464 71.121 39.6107 71.254 39.6107H71.7481L71.8882 38.4458C71.9072 38.277 71.9666 38.1391 72.064 38.0322C72.1614 37.9228 72.2968 37.8705 72.4702 37.8705C72.608 37.8705 72.7148 37.9157 72.7909 38.006C72.8669 38.0964 72.9049 38.2342 72.9049 38.4149V39.6107H73.6602C73.7909 39.6107 73.893 39.6487 73.9595 39.7201C74.0284 39.7938 74.0617 39.8912 74.0617 40.0125C74.0617 40.1313 74.0284 40.224 73.9595 40.293C73.8906 40.3619 73.7885 40.3952 73.6555 40.3952H72.9049V42.53C72.9049 42.8296 72.9429 43.0554 73.0165 43.2004C73.0925 43.3478 73.2255 43.4215 73.4156 43.4215H73.4678L73.8004 43.4025H73.8336C73.9619 43.4025 74.064 43.4453 74.1377 43.5333C74.2137 43.6212 74.2493 43.7234 74.2493 43.8423C74.2493 43.9184 74.2374 43.9826 74.2113 44.0396C74.1852 44.0967 74.1472 44.1418 74.0925 44.1751C74.0379 44.2108 73.9833 44.2369 73.9263 44.2607C73.8693 44.2845 73.7956 44.2964 73.6982 44.3059C73.6032 44.313 73.5201 44.3178 73.4512 44.3225C73.3823 44.3249 73.2921 44.3273 73.178 44.3273H73.0759C72.6507 44.3297 72.3182 44.1989 72.0783 43.9398Z"
    fill="#1D1D1B" />
  <path
    d="M75.2137 38.4624C75.0878 38.3412 75.0237 38.1843 75.0237 37.9893C75.0237 37.7968 75.0878 37.6399 75.2137 37.521C75.3396 37.4021 75.5059 37.3427 75.7125 37.3427C75.9168 37.3427 76.0807 37.4021 76.2042 37.521C76.3301 37.6399 76.3919 37.7968 76.3919 37.9893C76.3919 38.1843 76.3277 38.3412 76.2019 38.4624C76.076 38.5837 75.9097 38.6431 75.7078 38.6431C75.5035 38.6431 75.3396 38.5837 75.2137 38.4624ZM75.285 44.118C75.1757 44.0039 75.1211 43.8423 75.1211 43.6331V40.243C75.1211 40.0338 75.1757 39.8698 75.285 39.7557C75.3942 39.6392 75.5344 39.5821 75.7054 39.5821C75.8764 39.5821 76.0189 39.6392 76.1306 39.7557C76.2422 39.8722 76.2969 40.0338 76.2969 40.243V43.6331C76.2969 43.8399 76.2422 44.0015 76.1306 44.118C76.0189 44.2345 75.8788 44.2916 75.7054 44.2916C75.532 44.2916 75.3942 44.2321 75.285 44.118Z"
    fill="#1D1D1B" />
  <path
    d="M78.8551 44.1133C78.7149 43.9778 78.5772 43.7329 78.4465 43.3787L77.1995 40.3405C77.1686 40.2644 77.152 40.1883 77.152 40.1051C77.152 39.953 77.209 39.8246 77.3206 39.72C77.4323 39.6154 77.5629 39.5655 77.7054 39.5655C77.8147 39.5655 77.9145 39.5988 78.0071 39.663C78.0974 39.7295 78.1686 39.8294 78.2185 39.9649L79.4465 43.0958L80.6746 39.9649C80.7245 39.8294 80.7957 39.7295 80.886 39.663C80.9763 39.5988 81.076 39.5655 81.1853 39.5655C81.3302 39.5655 81.4584 39.6154 81.5701 39.72C81.6817 39.8246 81.7387 39.953 81.7387 40.1051C81.7387 40.186 81.7221 40.2644 81.6912 40.3405L80.4394 43.3787C80.3088 43.7329 80.1734 43.9754 80.0332 44.1133C79.8931 44.2488 79.6983 44.3177 79.4442 44.3177C79.19 44.3177 78.9952 44.2488 78.8551 44.1133Z"
    fill="#1D1D1B" />
  <path
    d="M82.639 40.7114C82.8195 40.3572 83.0879 40.0695 83.4442 39.8508C83.8005 39.6321 84.2162 39.5204 84.6865 39.5204C85.0499 39.5204 85.3706 39.5822 85.6509 39.701C85.9312 39.8223 86.1568 39.9887 86.3255 40.2026C86.4965 40.4142 86.6248 40.6543 86.7127 40.9206C86.8005 41.1868 86.8457 41.4745 86.848 41.7835C86.848 41.9048 86.8195 42.0046 86.7649 42.0807C86.7079 42.1544 86.6224 42.1924 86.5131 42.1924H83.5487C83.5986 43.0744 84.0499 43.5166 84.905 43.5166C85.2922 43.5166 85.7079 43.3573 86.1473 43.0435C86.2043 42.9984 86.2661 42.977 86.3302 42.977C86.4276 42.977 86.5131 43.0197 86.5891 43.1077C86.6651 43.1957 86.7008 43.2955 86.7008 43.4049C86.7008 43.5285 86.6509 43.6355 86.5511 43.7234C86.0571 44.1395 85.4799 44.3463 84.8195 44.3463C84.0784 44.3463 83.4846 44.13 83.0404 43.6997C82.5962 43.267 82.3729 42.6655 82.3729 41.8929C82.3682 41.4602 82.4584 41.0656 82.639 40.7114ZM85.8433 41.5316C85.8172 41.1726 85.7126 40.8754 85.5297 40.6448C85.3468 40.4118 85.0761 40.2977 84.715 40.2977C84.3635 40.2977 84.0903 40.419 83.8908 40.6591C83.6912 40.8992 83.5796 41.1916 83.5511 41.5316H85.8433Z"
    fill="#1D1D1B" />
  <path
    d="M90.5702 40.7114C90.7507 40.3572 91.0192 40.0695 91.3755 39.8508C91.7318 39.6321 92.1474 39.5204 92.6178 39.5204C92.9812 39.5204 93.3018 39.5822 93.5821 39.701C93.8624 39.8223 94.0881 39.9887 94.2567 40.2026C94.4278 40.4142 94.556 40.6543 94.6439 40.9206C94.7318 41.1868 94.7769 41.4745 94.7793 41.7835C94.7793 41.9048 94.7508 42.0046 94.6962 42.0807C94.6392 42.1544 94.5537 42.1924 94.4444 42.1924H91.48C91.5299 43.0744 91.9812 43.5166 92.8363 43.5166C93.2235 43.5166 93.6391 43.3573 94.0786 43.0435C94.1356 42.9984 94.1974 42.977 94.2615 42.977C94.3589 42.977 94.4444 43.0197 94.5204 43.1077C94.5964 43.1957 94.632 43.2955 94.632 43.4049C94.632 43.5285 94.5822 43.6355 94.4824 43.7234C93.9883 44.1395 93.4111 44.3463 92.7508 44.3463C92.0097 44.3463 91.4158 44.13 90.9717 43.6997C90.5275 43.267 90.3042 42.6655 90.3042 41.8929C90.3018 41.4602 90.3921 41.0656 90.5702 40.7114ZM93.7769 41.5316C93.7508 41.1726 93.6463 40.8754 93.4634 40.6448C93.2805 40.4118 93.0097 40.2977 92.6486 40.2977C92.2971 40.2977 92.0239 40.419 91.8244 40.6591C91.6249 40.8992 91.5132 41.1916 91.4847 41.5316H93.7769Z"
    fill="#1D1D1B" />
  <path
    d="M95.4348 42.1164C95.3446 42.0284 95.3018 41.9191 95.3018 41.7883C95.3018 41.6528 95.347 41.5435 95.4372 41.4579C95.5299 41.3723 95.6462 41.3271 95.7888 41.3271H97.6463C97.7888 41.3271 97.9076 41.3699 97.9978 41.4579C98.0881 41.5435 98.1332 41.6528 98.1332 41.7883C98.1332 41.9191 98.0857 42.0284 97.9907 42.1164C97.8981 42.2043 97.7817 42.2471 97.6439 42.2471H95.7626C95.6344 42.2495 95.5251 42.2043 95.4348 42.1164Z"
    fill="#1D1D1B" />
  <path
    d="M99.3423 44.0943C99.2093 43.9659 99.1428 43.7971 99.1428 43.5879V38.2271C99.1428 38.0179 99.2093 37.8491 99.3423 37.7207C99.4753 37.5923 99.6345 37.5281 99.8174 37.5281C100 37.5281 100.157 37.5923 100.29 37.7207C100.423 37.8491 100.49 38.0179 100.49 38.2271V40.2359H103.397V38.2271C103.397 38.0179 103.463 37.8491 103.599 37.7207C103.732 37.5923 103.891 37.5281 104.076 37.5281C104.259 37.5281 104.414 37.5923 104.547 37.7207C104.677 37.8491 104.744 38.0179 104.744 38.2271V43.5879C104.744 43.7971 104.677 43.9659 104.547 44.0943C104.416 44.2226 104.257 44.2868 104.074 44.2868C103.891 44.2868 103.734 44.2226 103.601 44.0943C103.466 43.9659 103.399 43.7971 103.399 43.5879V41.3342H100.492V43.5879C100.492 43.7971 100.425 43.9659 100.292 44.0943C100.159 44.2226 100 44.2868 99.8174 44.2868C99.6321 44.2868 99.4753 44.2203 99.3423 44.0943Z"
    fill="#1D1D1B" />
  <path
    d="M106.568 44.0991C106.437 43.9754 106.371 43.8066 106.371 43.5903V38.2057C106.371 38.006 106.44 37.842 106.58 37.7112C106.72 37.5805 106.886 37.5163 107.084 37.5163H109.152C110.801 37.5163 111.623 38.0892 111.623 39.2398C111.623 39.6392 111.497 39.9792 111.243 40.255C110.989 40.5331 110.609 40.7114 110.098 40.7922V40.8112C110.532 40.8944 110.856 41.0656 111.072 41.3247C111.285 41.5839 111.418 41.9333 111.468 42.3779L111.599 43.4857C111.601 43.5142 111.604 43.5547 111.604 43.607C111.604 43.8185 111.542 43.9849 111.423 44.1038C111.302 44.2227 111.152 44.2821 110.972 44.2821C110.784 44.2821 110.623 44.2227 110.487 44.1062C110.352 43.9897 110.276 43.8162 110.252 43.5879L110.136 42.5039C110.114 42.2947 110.084 42.1235 110.043 41.9928C110.003 41.862 109.939 41.7479 109.851 41.6528C109.763 41.5577 109.649 41.4888 109.506 41.4484C109.364 41.4079 109.183 41.3865 108.965 41.3865H108.946H107.718V43.5879C107.718 43.8066 107.651 43.9778 107.518 44.0991C107.385 44.2203 107.226 44.2821 107.043 44.2821C106.86 44.2821 106.701 44.2251 106.568 44.0991ZM108.673 40.3905C108.803 40.3905 108.915 40.3905 109.003 40.3857C109.091 40.381 109.195 40.3738 109.316 40.3596C109.437 40.3453 109.537 40.3263 109.62 40.3001C109.704 40.2763 109.789 40.2383 109.879 40.1931C109.97 40.1456 110.038 40.0909 110.093 40.0244C110.148 39.9578 110.19 39.8746 110.224 39.7747C110.257 39.6749 110.274 39.5608 110.274 39.4324C110.274 39.3112 110.259 39.2018 110.233 39.1067C110.205 39.0116 110.169 38.9332 110.126 38.869C110.084 38.8072 110.027 38.7525 109.951 38.7097C109.875 38.6669 109.806 38.6313 109.742 38.6075C109.677 38.5837 109.594 38.5671 109.492 38.5552C109.39 38.5457 109.302 38.5362 109.228 38.5338C109.157 38.5314 109.065 38.529 108.951 38.529H108.853H107.708V40.3881L108.673 40.3905Z"
    fill="#1D1D1B" />
  <path
    d="M115.464 43.5023C115.464 43.4001 115.499 43.3098 115.568 43.2289C115.639 43.1505 115.727 43.1125 115.839 43.1125C115.917 43.1125 115.998 43.1362 116.081 43.1814C116.219 43.2599 116.331 43.3193 116.411 43.3597C116.495 43.4001 116.628 43.4477 116.813 43.4976C116.998 43.5499 117.181 43.576 117.366 43.576C117.549 43.576 117.708 43.557 117.851 43.5214C117.993 43.4857 118.115 43.4191 118.217 43.324C118.319 43.2289 118.369 43.1053 118.369 42.9556C118.369 42.6893 118.15 42.5039 117.715 42.3969L116.984 42.2091C116.763 42.1497 116.582 42.0974 116.445 42.0498C116.307 42.0023 116.167 41.9428 116.027 41.8691C115.884 41.7954 115.777 41.7146 115.704 41.6266C115.63 41.5363 115.568 41.4246 115.521 41.2938C115.473 41.1607 115.449 41.0062 115.449 40.8279C115.449 40.4 115.62 40.0695 115.965 39.8389C116.309 39.6083 116.761 39.4942 117.321 39.4942C117.863 39.4942 118.376 39.6107 118.86 39.846C119.029 39.9269 119.115 40.0529 119.115 40.2217C119.115 40.3239 119.084 40.4071 119.017 40.4784C118.953 40.5473 118.868 40.583 118.763 40.583C118.711 40.583 118.649 40.5711 118.58 40.545C118.578 40.545 118.542 40.5331 118.476 40.5069C118.411 40.4808 118.364 40.4665 118.338 40.457C118.312 40.4499 118.262 40.4332 118.191 40.4095C118.119 40.3857 118.058 40.369 118.005 40.3595C117.953 40.3477 117.891 40.3358 117.82 40.3215C117.749 40.3072 117.677 40.2977 117.606 40.293C117.535 40.2858 117.464 40.2835 117.395 40.2835C117.153 40.2835 116.948 40.3215 116.78 40.4023C116.611 40.4832 116.528 40.6044 116.528 40.7708C116.528 40.9182 116.573 41.0252 116.666 41.0965C116.758 41.1654 116.934 41.232 117.193 41.2914L117.915 41.4745C118.416 41.6005 118.787 41.7693 119.02 41.9856C119.252 42.202 119.369 42.4991 119.369 42.8819C119.369 43.3597 119.193 43.7258 118.841 43.9802C118.49 44.2322 118.031 44.3605 117.468 44.3605C116.739 44.3605 116.129 44.1799 115.63 43.8161C115.518 43.7353 115.464 43.6307 115.464 43.5023Z"
    fill="#1D1D1B" />
  <path
    d="M121.48 44.1442C121.157 44.0111 120.901 43.828 120.708 43.5998C120.516 43.3716 120.371 43.1148 120.269 42.8343C120.169 42.5538 120.119 42.2543 120.119 41.9381C120.119 41.6885 120.15 41.446 120.212 41.213C120.274 40.98 120.369 40.7613 120.502 40.5545C120.632 40.3477 120.794 40.167 120.982 40.0148C121.169 39.8627 121.402 39.7414 121.675 39.6511C121.948 39.5608 122.25 39.518 122.578 39.518C122.898 39.518 123.195 39.5608 123.466 39.6464C123.737 39.7319 123.967 39.8508 124.157 40.0006C124.347 40.148 124.511 40.3263 124.647 40.5307C124.78 40.7352 124.879 40.9586 124.944 41.194C125.008 41.4317 125.039 41.6813 125.039 41.9404C125.039 42.1877 125.01 42.4254 124.946 42.6536C124.884 42.8819 124.789 43.1006 124.661 43.3098C124.533 43.519 124.371 43.6973 124.184 43.8494C123.993 44.0016 123.761 44.1228 123.488 44.2132C123.212 44.3035 122.91 44.3487 122.578 44.3487C122.167 44.3463 121.801 44.2797 121.48 44.1442ZM123.523 43.122C123.749 42.8414 123.86 42.4468 123.86 41.9381C123.86 41.427 123.749 41.0299 123.523 40.747C123.298 40.4641 122.982 40.3191 122.578 40.3191C122.172 40.3191 121.856 40.4618 121.632 40.7447C121.409 41.0276 121.297 41.4246 121.297 41.9381C121.297 42.4444 121.409 42.8391 121.635 43.122C121.86 43.4049 122.174 43.5428 122.578 43.5428C122.984 43.5428 123.298 43.4025 123.523 43.122Z"
    fill="#1D1D1B" />
  <path
    d="M126.644 44.1157C126.533 43.9992 126.476 43.8375 126.476 43.6307V40.369H126.015C125.877 40.3667 125.773 40.331 125.701 40.2644C125.63 40.2003 125.594 40.1075 125.594 39.9887C125.594 39.8817 125.628 39.7914 125.697 39.7177C125.766 39.644 125.868 39.6083 126.001 39.6083H126.473V39.14C126.473 38.0203 127.001 37.4592 128.053 37.4592H128.63C128.749 37.4592 128.844 37.5068 128.915 37.6019C128.984 37.6946 129.02 37.8039 129.02 37.9299C129.02 38.0512 128.986 38.1558 128.92 38.2414C128.853 38.3269 128.756 38.3721 128.63 38.3721H128.255C128.098 38.3721 127.982 38.3911 127.903 38.4292C127.825 38.4672 127.763 38.5504 127.72 38.6812C127.678 38.8119 127.654 39.0092 127.654 39.2684V39.6107H128.293C128.421 39.6107 128.521 39.6463 128.592 39.72C128.663 39.7937 128.701 39.8817 128.701 39.9934C128.701 40.1099 128.666 40.2026 128.592 40.2692C128.521 40.3381 128.416 40.3738 128.279 40.3738H127.656V43.6355C127.656 43.8447 127.602 44.0063 127.49 44.1204C127.378 44.2345 127.238 44.2916 127.067 44.2916C126.899 44.2892 126.758 44.2322 126.644 44.1157Z"
    fill="#1D1D1B" />
  <path
    d="M129.934 43.9398C129.694 43.6806 129.576 43.3098 129.576 42.8248V40.3976H129.119C128.986 40.3976 128.882 40.3619 128.808 40.2882C128.735 40.2145 128.697 40.1171 128.697 39.9958C128.697 39.8817 128.73 39.7866 128.799 39.7177C128.868 39.6464 128.97 39.6107 129.103 39.6107H129.597L129.737 38.4458C129.756 38.277 129.815 38.1391 129.913 38.0322C130.013 37.9228 130.146 37.8705 130.319 37.8705C130.457 37.8705 130.564 37.9157 130.64 38.006C130.716 38.0964 130.754 38.2342 130.754 38.4149V39.6107H131.509C131.64 39.6107 131.739 39.6487 131.811 39.7201C131.88 39.7938 131.913 39.8912 131.913 40.0125C131.913 40.1313 131.877 40.224 131.811 40.293C131.742 40.3619 131.64 40.3952 131.507 40.3952H130.756V42.53C130.756 42.8296 130.794 43.0554 130.868 43.2004C130.944 43.3478 131.077 43.4215 131.267 43.4215H131.319L131.652 43.4025H131.682C131.811 43.4025 131.913 43.4453 131.986 43.5333C132.062 43.6212 132.098 43.7234 132.098 43.8423C132.098 43.9184 132.086 43.9826 132.06 44.0396C132.034 44.0967 131.996 44.1418 131.939 44.1751C131.884 44.2108 131.83 44.2369 131.773 44.2607C131.716 44.2845 131.64 44.2964 131.545 44.3059C131.45 44.313 131.367 44.3178 131.298 44.3225C131.229 44.3273 131.138 44.3273 131.024 44.3273H130.922C130.507 44.3297 130.174 44.1989 129.934 43.9398Z"
    fill="#1D1D1B" />
  <path
    d="M137.666 44.1109C137.531 43.992 137.412 43.7686 137.312 43.4405L136.374 40.6805L135.435 43.4405C135.336 43.7686 135.217 43.992 135.082 44.1109C134.946 44.2298 134.77 44.2892 134.559 44.2892C134.2 44.2892 133.944 44.0277 133.789 43.4999L132.749 40.2906C132.73 40.224 132.72 40.1598 132.72 40.098C132.72 39.9435 132.773 39.8223 132.88 39.7295C132.987 39.6368 133.11 39.5917 133.25 39.5917C133.367 39.5917 133.471 39.6249 133.564 39.6939C133.656 39.7628 133.723 39.865 133.761 39.9982L134.68 43.0768L135.628 40.2597C135.699 40.0315 135.794 39.8603 135.913 39.7462C136.032 39.6321 136.186 39.575 136.374 39.575C136.561 39.575 136.713 39.6321 136.832 39.7462C136.951 39.8603 137.046 40.0315 137.12 40.2597L138.065 43.0768L138.984 39.9982C139.022 39.8627 139.086 39.7628 139.181 39.6939C139.276 39.6249 139.381 39.5917 139.495 39.5917C139.635 39.5917 139.759 39.6368 139.865 39.7295C139.972 39.8223 140.025 39.9435 140.025 40.098C140.025 40.1598 140.015 40.224 139.996 40.2906L138.956 43.4999C138.804 44.0253 138.547 44.2892 138.186 44.2892C137.975 44.2892 137.801 44.2298 137.666 44.1109Z"
    fill="#1D1D1B" />
  <path
    d="M141.189 43.9873C140.885 43.752 140.732 43.4215 140.732 43.0007C140.732 42.8129 140.751 42.6465 140.792 42.5063C140.832 42.366 140.887 42.2424 140.956 42.1378C141.025 42.0332 141.124 41.9476 141.253 41.8739C141.381 41.8026 141.516 41.7431 141.661 41.698C141.806 41.6528 141.987 41.6171 142.208 41.591C142.428 41.5672 142.649 41.5506 142.875 41.5411C143.101 41.5339 143.371 41.5292 143.69 41.5292V41.1678C143.69 40.873 143.621 40.6591 143.481 40.5236C143.341 40.3881 143.134 40.3191 142.858 40.3191C142.799 40.3191 142.74 40.3215 142.678 40.3263C142.616 40.331 142.557 40.3382 142.493 40.35C142.431 40.3595 142.376 40.3714 142.329 40.3786C142.281 40.3881 142.224 40.4 142.16 40.419C142.094 40.438 142.044 40.4523 142.008 40.4594C141.975 40.4689 141.925 40.4855 141.858 40.5093C141.792 40.5331 141.749 40.5474 141.733 40.5545C141.714 40.5616 141.671 40.5759 141.607 40.6044C141.54 40.6306 141.507 40.6448 141.502 40.6448C141.469 40.6591 141.424 40.6686 141.371 40.6686C141.262 40.6686 141.17 40.621 141.091 40.5283C141.015 40.438 140.977 40.3334 140.977 40.2169C140.977 40.0648 141.046 39.9554 141.184 39.8888C141.704 39.644 142.279 39.5227 142.913 39.5227C143.2 39.5227 143.459 39.556 143.687 39.6226C143.915 39.6891 144.117 39.7914 144.291 39.9269C144.466 40.0648 144.602 40.2502 144.697 40.4855C144.792 40.7185 144.839 40.9967 144.839 41.3152V43.6997C144.839 43.8875 144.785 44.0325 144.676 44.1347C144.566 44.2369 144.436 44.2892 144.281 44.2892C144.127 44.2892 143.996 44.2369 143.885 44.1347C143.773 44.0325 143.718 43.8851 143.718 43.6997V43.5451C143.619 43.7829 143.457 43.9778 143.234 44.1252C143.01 44.275 142.716 44.3487 142.355 44.3487C141.885 44.3439 141.493 44.225 141.189 43.9873ZM143.324 43.2337C143.566 42.9865 143.685 42.6727 143.685 42.2947V42.1592C143.371 42.1592 143.124 42.1639 142.942 42.1734C142.759 42.1829 142.585 42.202 142.421 42.2281C142.257 42.2543 142.136 42.2971 142.058 42.3541C141.98 42.4112 141.918 42.4872 141.875 42.58C141.832 42.6727 141.809 42.7892 141.809 42.9342C141.809 43.1529 141.873 43.3193 141.999 43.4334C142.124 43.5475 142.293 43.6046 142.502 43.6046C142.811 43.6046 143.084 43.4809 143.324 43.2337Z"
    fill="#1D1D1B" />
  <path
    d="M146.295 44.1228C146.184 44.0134 146.129 43.8518 146.129 43.6473V40.1456C146.129 39.9673 146.189 39.8294 146.305 39.7295C146.421 39.6297 146.562 39.5821 146.725 39.5821C146.885 39.5821 147.022 39.6297 147.141 39.7248C147.257 39.8199 147.314 39.9506 147.312 40.117L147.298 40.602C147.383 40.3215 147.543 40.079 147.78 39.8769C148.018 39.6749 148.281 39.575 148.573 39.575C148.718 39.575 148.828 39.6249 148.906 39.72C148.984 39.8175 149.022 39.934 149.022 40.0719C149.022 40.2026 148.987 40.3191 148.915 40.419C148.844 40.5188 148.747 40.5687 148.626 40.5687C148.44 40.5687 148.276 40.583 148.136 40.6139C147.994 40.6424 147.856 40.6947 147.725 40.7708C147.595 40.8445 147.493 40.961 147.421 41.1131C147.35 41.2653 147.314 41.4555 147.314 41.6765V43.6568C147.314 43.8589 147.257 44.0158 147.148 44.1252C147.037 44.2345 146.894 44.2892 146.718 44.2892C146.547 44.2892 146.407 44.2345 146.295 44.1228Z"
    fill="#1D1D1B" />
  <path
    d="M149.832 40.7114C150.013 40.3572 150.281 40.0695 150.638 39.8508C150.994 39.6321 151.41 39.5204 151.88 39.5204C152.243 39.5204 152.564 39.5822 152.844 39.701C153.125 39.8223 153.35 39.9887 153.519 40.2026C153.69 40.4142 153.818 40.6543 153.906 40.9206C153.994 41.1868 154.039 41.4745 154.041 41.7835C154.041 41.9048 154.013 42.0046 153.958 42.0807C153.901 42.1544 153.818 42.1924 153.707 42.1924H150.74C150.79 43.0744 151.241 43.5166 152.096 43.5166C152.483 43.5166 152.899 43.3573 153.338 43.0435C153.395 42.9984 153.457 42.977 153.521 42.977C153.619 42.977 153.704 43.0197 153.78 43.1077C153.856 43.1957 153.892 43.2955 153.892 43.4049C153.892 43.5285 153.842 43.6355 153.742 43.7234C153.248 44.1395 152.671 44.3463 152.013 44.3463C151.272 44.3463 150.678 44.13 150.234 43.6997C149.79 43.267 149.566 42.6655 149.566 41.8929C149.564 41.4602 149.654 41.0656 149.832 40.7114ZM153.039 41.5316C153.013 41.1726 152.908 40.8754 152.726 40.6448C152.543 40.4118 152.272 40.2977 151.911 40.2977C151.559 40.2977 151.286 40.419 151.087 40.6591C150.887 40.8992 150.775 41.1916 150.747 41.5316H153.039Z"
    fill="#1D1D1B" />
</svg>
