<svg
  width="199"
  height="32"
  viewBox="0 0 199 32"
  fill="none"
  xmlns="http://www.w3.org/2000/svg"
>
  <path
    d="M198.617 16.834C196.466 16.834 194.913 17.5217 193.632 18.6245V17.0712H188.794V31.5494H193.632V23.2806C194.767 22.1463 196.261 21.5178 198.617 21.4308V16.834ZM179 20.4743C180.553 20.4743 181.597 21.3083 181.866 22.8933H175.953C176.308 21.4308 177.356 20.4743 178.996 20.4743M186.407 23.9961C186.407 19.6364 183.213 16.7431 179.004 16.7431C174.376 16.7431 171.3 19.9091 171.3 24.2965C171.3 28.6838 174.466 31.8775 179.213 31.8775C182.794 31.8775 185.573 29.9961 186.261 27.0119H181.482C181.063 27.668 180.289 28.0553 179.273 28.0553C177.423 28.0553 176.407 27.0395 176.02 25.7273H186.348L186.316 25.6364C186.407 25.0988 186.407 24.5297 186.407 23.9961ZM162.85 16.6245C161.296 16.6245 160.012 17.1304 158.85 18.0553V17.0712H154.012V31.5494H158.85V22.4743C159.688 21.5178 160.64 21.0119 161.538 21.0119C163.119 21.0119 164.166 21.9961 164.166 24.0553V31.5494H169.032V23.2806C169.032 19.1621 166.526 16.6245 162.85 16.6245ZM144.759 16.6245C143.206 16.6245 141.925 17.1304 140.759 18.0553V17.0712H135.921V31.5494H140.759V22.4743C141.593 21.5178 142.549 21.0119 143.447 21.0119C145.028 21.0119 146.075 21.9961 146.075 24.0553V31.5494H150.941V23.2806C150.941 19.1621 148.435 16.6245 144.759 16.6245ZM124.787 27.8775C122.814 27.8775 121.383 26.2964 121.383 24.2965C121.383 22.2965 122.814 20.6838 124.787 20.6838C125.862 20.6838 126.905 21.0119 127.802 22.0553V26.5336C126.905 27.5771 125.862 27.8775 124.787 27.8775ZM132.636 17.0712H127.798V17.8459C126.723 17.1581 125.411 16.7431 123.826 16.7431C119.917 16.7431 116.632 19.9684 116.632 24.2965C116.632 28.6245 119.917 31.8498 123.826 31.8498C125.407 31.8498 126.723 31.4308 127.798 30.747V31.5534H132.636V17.0751V17.0712ZM114.067 10.3518H109.229V31.5494H114.067V10.3518ZM95.2886 21.9684V15.6996H98.3044C100.545 15.6996 101.976 16.8656 101.976 18.6838C101.976 20.6838 100.545 21.9684 98.3044 21.9684H95.2886ZM90.2411 11.249V31.5494H95.2846V26.3834H98C103.553 26.3834 107.016 23.4269 107.016 18.6799C107.016 13.9328 103.704 11.2451 98.419 11.2451H90.2372L90.2411 11.249ZM79.6166 27.8182C77.6443 27.8182 76.332 26.2648 76.332 24.3241C76.332 22.3834 77.6443 20.921 79.6166 20.921C81.5889 20.921 82.8696 22.4427 82.8696 24.3241C82.8696 26.2055 81.5573 27.8182 79.6166 27.8182ZM79.585 16.7431C75.0158 16.7431 71.7312 19.9368 71.7312 24.2965C71.7312 28.6561 75.0158 32 79.585 32C84.1542 32 87.4387 28.7154 87.4387 24.2965C87.4387 19.8775 84.1542 16.7431 79.585 16.7431ZM70.419 16.834C68.2688 16.834 66.7154 17.5217 65.4348 18.6245V17.0712H60.5968V31.5494H65.4348V23.2806C66.5692 22.1463 68.0633 21.5178 70.419 21.4308V16.834ZM46.6561 21.9684V15.6996H49.6719C51.9091 15.6996 53.3439 16.8656 53.3439 18.6838C53.3439 20.6838 51.9131 21.9684 49.6719 21.9684H46.6561ZM41.6087 11.249V31.5494H46.6522V26.3834H49.3676C54.921 26.3834 58.3834 23.4269 58.3834 18.6799C58.3834 13.9328 55.0712 11.2451 49.7866 11.2451H41.6048L41.6087 11.249Z"
    fill="#00A9C1"
  ></path>
  <path
    d="M16.7036 31.5573V26.8972C19.3004 26.6205 21.5455 25.585 23.3913 23.7431C25.2371 21.8972 26.2767 19.6561 26.5534 17.0553H31.1937C30.9288 24.1186 24.9802 31.0593 16.7036 31.5573Z"
    fill="#262626"
    class="white"
  ></path>
  <path
    d="M14.4901 31.5573V26.8972C11.8893 26.6205 9.64822 25.585 7.80237 23.7431C5.95652 21.8972 4.917 19.6561 4.64032 17.0553H0C0.264822 24.1186 6.21739 31.0593 14.4901 31.5573Z"
    fill="#262626"
    class="white"
  ></path>
  <path
    d="M14.4901 0V4.66008C11.8893 4.93676 9.64822 5.97233 7.80237 7.81423C5.95652 9.66008 4.917 11.9012 4.64032 14.502H0C0.264822 7.43873 6.21739 0.498024 14.4901 0Z"
    fill="#00A9C1"
  ></path>
  <path
    d="M16.7036 0V4.66008C19.3004 4.93676 21.5455 5.97233 23.3913 7.81423C25.2371 9.66008 26.2767 11.9012 26.5534 14.502H31.1937C30.9328 7.43873 24.9802 0.498024 16.7036 0Z"
    fill="#262626"
    class="white"
  ></path>
</svg>
