<svg xmlns="http://www.w3.org/2000/svg" width="237.973" height="43.529" viewBox="0 0 237.973 43.529">
  <g id="Group_465" data-name="Group 465" transform="translate(-185.025 -47.553)">
    <path id="Path_14" data-name="Path 14" d="M68.6,11.6H60.865c-7.359,0-14.842,1.5-14.842,12.6v6.236c0,11.35,7.608,12.722,14.343,12.722H69.1c7.109,0,15.341-1.123,15.341-9.479V32.054H77.7v.873c-.374,3.617-1.871,4.49-7.982,4.49H63.11c-8.357,0-10.6-1.621-10.6-7.359v-.873h31.68V24.945C84.313,13.221,76.331,11.6,68.6,11.6Zm8.98,11.724H52.634c.5-5.114,2-5.862,8.855-5.862H68.6c4.116,0,9.1.873,9.1,4.989v.873ZM96.661,0H90.924V42.78h6.61V0ZM126.72,11.6h-7.733c-7.359,0-14.842,1.5-14.842,12.6v6.236c0,11.35,7.608,12.722,14.343,12.722h8.731c7.109,0,15.341-1.123,15.341-9.479V32.054h-6.61v.873c-.249,3.492-1.746,4.365-7.858,4.365h-6.61c-8.357,0-10.6-1.621-10.6-7.359v-.873h31.68V24.82c-.125-11.6-7.982-13.221-15.84-13.221Zm9.1,11.724H110.88c.5-5.114,2-5.862,8.855-5.862h6.985c4.116,0,9.1.873,9.1,4.989Zm46.9-11.225h-5.613l-.249.5L163.887,35.921,150.791,12.6l-.249-.5h-7.234l.748,1.372,16.089,28.811.249.5h6.86l.249-.5L183.594,13.47l.748-1.372ZM193.073,0H187.46V7.234h6.61V0Zm-4.74,12.1h-.873V42.905h6.61V12.1Zm48.518,18.334h-5.363v2c0,2.245-.748,5.114-7.234,5.114h-8.107c-6.361,0-8.731-1.871-8.731-6.985V24.571c0-6.361,3.492-6.86,7.858-6.86h8.855c5.114,0,6.985,1.372,6.985,4.989v1.621h6.236V22.575c0-7.109-4.49-10.726-13.345-10.726h-7.982c-7.483,0-15.216,1.5-15.216,12.6v6.486c0,8.107,4.615,12.6,12.847,12.6H224.5c9.479,0,13.47-3.243,13.47-11.1V30.557h-1.123ZM40.286,17.96V12.1H12.847V5.238H6.236V12.1H0v5.987H6.236V30.807c0,8.107,4.615,12.6,12.847,12.6h7.733c9.479,0,13.47-3.243,13.47-11.1V30.433H34.05v2c0,2.245-.748,5.114-7.234,5.114H21.7c-6.361,0-8.731-1.871-8.731-6.985V18.085H40.286Z" transform="translate(185.025 47.553)" fill="#fff"/>
  </g>
</svg>
