<svg id="Laag_1" data-name="Laag 1" xmlns="http://www.w3.org/2000/svg" xmlns:xlink="http://www.w3.org/1999/xlink" viewBox="0 0 2000 406.28"><defs><style>.cls-1{fill:#53575a;}.cls-2{fill:#009338;}.cls-3{fill:#9ea1a2;}.cls-4{fill:url(#linear-gradient);}</style><linearGradient id="linear-gradient" y1="203.14" x2="495.24" y2="203.14" gradientUnits="userSpaceOnUse"><stop offset="0" stop-color="#71bf93"/><stop offset="1" stop-color="#009338"/></linearGradient></defs><title>logo</title><path class="cls-1" d="M618.31,184.39V102.52a8.69,8.69,0,1,1,17.38,0v80.77c0,33.23,17.83,51.94,47.1,51.94,28.39,0,46.44-17.17,46.44-50.84V102.52a8.69,8.69,0,1,1,17.38,0v80.55c0,44.9-25.74,68.22-64.26,68.22C644.28,251.29,618.31,228,618.31,184.39Z"/><path class="cls-1" d="M787.77,103.62a8.78,8.78,0,0,1,8.59-8.8h49.07c34.77,0,57.66,18.49,57.66,48.86v.44c0,33.23-27.73,50.39-60.52,50.39H805.16v46.66a8.7,8.7,0,1,1-17.39,0Zm55.46,75c25.53,0,42.26-13.65,42.26-33.89v-.44c0-22-16.51-33.46-41.38-33.46h-39v67.79Z"/><path class="cls-1" d="M934.79,103.62a8.78,8.78,0,0,1,8.58-8.8h44.9c48.41,0,81.86,33.23,81.86,76.59v.44c0,43.35-33.45,77-81.86,77h-44.9a8.78,8.78,0,0,1-8.58-8.8Zm53.48,129.19c39,0,63.82-26.41,63.82-60.52v-.44c0-34.12-24.87-61-63.82-61h-36.1V232.81Z"/><path class="cls-1" d="M1088.41,237.43l62.51-136.67c2.19-4.84,5.5-7.7,11-7.7h.88c5.28,0,8.8,2.86,10.78,7.7l62.5,136.45a11.75,11.75,0,0,1,1.1,4.4,8.36,8.36,0,0,1-8.36,8.36c-4.18,0-7-2.86-8.58-6.38l-16.07-35.43h-84.51L1103.6,244c-1.54,3.74-4.4,5.94-8.37,5.94a7.89,7.89,0,0,1-7.92-7.92A10,10,0,0,1,1088.41,237.43Zm108.94-45.12-35.43-78.78-35.43,78.78Z"/><path class="cls-1" d="M1292.21,110.88h-44.68a8.08,8.08,0,0,1-8.14-7.92,8.27,8.27,0,0,1,8.14-8.14h107a8.27,8.27,0,0,1,8.14,8.14,8.08,8.08,0,0,1-8.14,7.92h-44.67V241.17a8.81,8.81,0,0,1-17.61,0Z"/><path class="cls-1" d="M1394.11,240.07V103.62a8.78,8.78,0,0,1,8.58-8.8h95.74a7.92,7.92,0,0,1,0,15.84H1411.5v52.6h77a8,8,0,0,1,7.93,7.93,7.89,7.89,0,0,1-7.93,7.92h-77V233h88a7.92,7.92,0,1,1,0,15.84h-96.84A8.78,8.78,0,0,1,1394.11,240.07Z"/><path class="cls-2" d="M1539.58,108.46a13.44,13.44,0,0,1,13.65-13.64h47.1c36.09,0,58.54,20.47,58.54,51.5v.44c0,34.55-27.73,52.6-61.62,52.6h-30.6v37.19a13.54,13.54,0,0,1-27.07,0Zm58.55,66.47c20.46,0,33.23-11.45,33.23-27.51V147c0-18-13-27.51-33.23-27.51h-31.48v55.46Z"/><path class="cls-2" d="M1686.6,108.46a13.44,13.44,0,0,1,13.65-13.64h55c19.36,0,34.55,5.72,44.45,15.41,8.14,8.36,12.77,19.8,12.77,33.23v.44c0,24.65-14.31,39.61-35,46l29.49,37.2c2.64,3.29,4.4,6.16,4.4,10.34,0,7.48-6.38,12.54-13,12.54-6.16,0-10.12-2.86-13.2-7l-37.41-47.76h-34.12v41.38a13.54,13.54,0,0,1-27.07,0Zm66.69,62.73c19.36,0,31.69-10.13,31.69-25.75V145c0-16.51-11.89-25.53-31.91-25.53h-39.4v51.72Z"/><path class="cls-2" d="M1838.9,172.29v-.44c0-43.36,33.45-79.67,80.77-79.67S2000,128.05,2000,171.41v.44c0,43.35-33.45,79.66-80.77,79.66S1838.9,215.64,1838.9,172.29Zm132.71,0v-.44c0-29.93-21.79-54.8-52.38-54.8s-51.94,24.43-51.94,54.36v.44c0,29.93,21.79,54.58,52.38,54.58S1971.61,202.22,1971.61,172.29Z"/><path class="cls-3" d="M617.8,349.81a2.92,2.92,0,0,1,2.87-2.93h31.77a2.63,2.63,0,0,1,2.64,2.64,2.7,2.7,0,0,1-2.64,2.71H623.6v18.34h25.54a2.65,2.65,0,0,1,0,5.29H623.6v19.81a2.9,2.9,0,1,1-5.8,0Z"/><path class="cls-3" d="M680.6,349.44a2.9,2.9,0,1,1,5.79,0v43.44H713a2.7,2.7,0,0,1,2.65,2.72,2.64,2.64,0,0,1-2.65,2.64H683.46a2.93,2.93,0,0,1-2.86-2.94Z"/><path class="cls-3" d="M740.69,395.3V349.81a2.91,2.91,0,0,1,2.85-2.93h31.92a2.64,2.64,0,0,1,0,5.28h-29v17.53h25.68a2.68,2.68,0,0,1,2.64,2.65,2.63,2.63,0,0,1-2.64,2.64H746.48v18h29.35a2.64,2.64,0,0,1,0,5.28H743.54A2.92,2.92,0,0,1,740.69,395.3Z"/><path class="cls-3" d="M802.89,393.84,820.07,372l-16.3-20.54a3.57,3.57,0,0,1-.95-2.2,2.85,2.85,0,0,1,2.86-2.79,3.15,3.15,0,0,1,2.57,1.46l15.48,20.11L839,348.19a3.61,3.61,0,0,1,2.79-1.68,2.69,2.69,0,0,1,2.64,2.71,3.13,3.13,0,0,1-.8,2L827.26,372l17,21.65a3.13,3.13,0,0,1,.95,2.12,2.87,2.87,0,0,1-2.86,2.87,3.14,3.14,0,0,1-2.57-1.47l-16.22-21.06-16,20.84a3.63,3.63,0,0,1-2.86,1.69,2.68,2.68,0,0,1-2.57-2.72A3.15,3.15,0,0,1,802.89,393.84Z"/><path class="cls-3" d="M872.44,349.44a2.9,2.9,0,1,1,5.8,0v46.23a2.9,2.9,0,1,1-5.8,0Z"/><path class="cls-3" d="M908,349.81a2.92,2.92,0,0,1,2.86-2.93h19c5.86,0,10.49,1.68,13.42,4.54a11.4,11.4,0,0,1,3.3,8.22v.15c0,6.68-4.1,10.13-8.14,11.88,6.09,1.84,11,5.36,11,12.41v.14c0,8.81-7.42,14-18.64,14h-20A2.93,2.93,0,0,1,908,395.3Zm20.91,20c7,0,11.82-3.16,11.82-9.17v-.15c0-5.06-4-8.37-11.38-8.37H913.67v17.69ZM930.92,393c7.77,0,12.61-3.45,12.61-9.17v-.15c0-5.58-4.69-8.81-13.64-8.81H913.67V393Z"/><path class="cls-3" d="M975.59,349.44a2.9,2.9,0,1,1,5.79,0v43.44H1008a2.69,2.69,0,0,1,2.64,2.72,2.63,2.63,0,0,1-2.64,2.64H978.45a2.93,2.93,0,0,1-2.86-2.94Z"/><path class="cls-3" d="M1035.67,395.3V349.81a2.92,2.92,0,0,1,2.86-2.93h31.92a2.64,2.64,0,1,1,0,5.28h-29v17.53h25.69a2.68,2.68,0,0,1,2.64,2.65,2.63,2.63,0,0,1-2.64,2.64h-25.69v18h29.36a2.64,2.64,0,1,1,0,5.28h-32.29A2.93,2.93,0,0,1,1035.67,395.3Z"/><path class="cls-3" d="M1136.17,349.81a2.92,2.92,0,0,1,2.87-2.93h16.36c11.6,0,19.23,6.16,19.23,16.28v.15c0,11.08-9.25,16.8-20.19,16.8H1142v15.56a2.9,2.9,0,1,1-5.8,0Zm18.5,25c8.51,0,14.08-4.55,14.08-11.3v-.15c0-7.33-5.5-11.15-13.79-11.15h-13v22.6Z"/><path class="cls-3" d="M1191.93,394.42l20.84-45.57a3.78,3.78,0,0,1,3.67-2.56h.29a3.7,3.7,0,0,1,3.6,2.56l20.84,45.5a3.9,3.9,0,0,1,.36,1.46,2.79,2.79,0,0,1-2.78,2.8,3.18,3.18,0,0,1-2.87-2.13l-5.35-11.82h-28.18l-5.36,12a2.91,2.91,0,0,1-2.78,2,2.64,2.64,0,0,1-2.65-2.64A3.28,3.28,0,0,1,1191.93,394.42Zm36.32-15-11.81-26.27-11.82,26.27Z"/><path class="cls-3" d="M1275.64,378.06l-19.08-26.71a3.75,3.75,0,0,1-.66-2,3,3,0,0,1,3-2.86,3.39,3.39,0,0,1,2.79,1.76l17,24.43,17.09-24.43a3.28,3.28,0,0,1,2.72-1.76,2.86,2.86,0,0,1,2.86,2.86,4.54,4.54,0,0,1-.8,2.13l-19,26.41v17.76a2.94,2.94,0,1,1-5.87,0Z"/><path class="cls-3" d="M1326.48,349.81a2.92,2.92,0,0,1,2.86-2.93h19.22c6.31,0,11.38,1.9,14.6,5.13a14.18,14.18,0,0,1,4,10.13v.14c0,8.44-5.72,13.36-13.72,14.9l12.76,16.44a3.1,3.1,0,0,1,1,2.12,3,3,0,0,1-2.94,2.87,3.38,3.38,0,0,1-2.71-1.55L1347,378.28h-14.75v17.39a2.9,2.9,0,1,1-5.79,0Zm21.57,23.26c7.7,0,13.21-4,13.21-10.57v-.14c0-6.31-4.84-10.13-13.14-10.13h-15.85v20.84Z"/><path class="cls-3" d="M1391.91,372.7v-.14c0-14.16,10.64-26.57,26.27-26.57s26.13,12.26,26.13,26.42v.15c0,14.16-10.64,26.56-26.27,26.56S1391.91,386.87,1391.91,372.7Zm46.38,0v-.14c0-11.67-8.51-21.21-20.25-21.21s-20.11,9.39-20.11,21.06v.15c0,11.66,8.51,21.2,20.25,21.2S1438.29,384.37,1438.29,372.7Z"/><path class="cls-3" d="M1471.22,349.44a2.9,2.9,0,1,1,5.8,0v43.44h26.63a2.69,2.69,0,0,1,2.64,2.72,2.63,2.63,0,0,1-2.64,2.64h-29.57a2.93,2.93,0,0,1-2.86-2.94Z"/><path class="cls-3" d="M1531.3,349.44a2.9,2.9,0,1,1,5.8,0v43.44h26.64a2.7,2.7,0,0,1,2.64,2.72,2.64,2.64,0,0,1-2.64,2.64h-29.58a2.93,2.93,0,0,1-2.86-2.94Z"/><path class="cls-3" d="M1625.79,372.7v-.14c0-14.16,10.64-26.57,26.27-26.57s26.12,12.26,26.12,26.42v.15c0,14.16-10.64,26.56-26.27,26.56S1625.79,386.87,1625.79,372.7Zm46.37,0v-.14c0-11.67-8.51-21.21-20.25-21.21s-20.1,9.39-20.1,21.06v.15c0,11.66,8.51,21.2,20.25,21.2S1672.16,384.37,1672.16,372.7Z"/><path class="cls-3" d="M1705.09,349.81a2.93,2.93,0,0,1,2.87-2.93h31.77a2.63,2.63,0,0,1,2.64,2.64,2.7,2.7,0,0,1-2.64,2.71h-28.84v18.34h25.54a2.65,2.65,0,0,1,0,5.29h-25.54v19.81a2.9,2.9,0,1,1-5.8,0Z"/><path class="cls-3" d="M1767.89,349.81a2.92,2.92,0,0,1,2.86-2.93h31.78a2.63,2.63,0,0,1,2.64,2.64,2.7,2.7,0,0,1-2.64,2.71h-28.84v18.34h25.53a2.65,2.65,0,0,1,0,5.29h-25.53v19.81a2.9,2.9,0,1,1-5.8,0Z"/><path class="cls-3" d="M1831.2,349.44a2.9,2.9,0,1,1,5.8,0v46.23a2.9,2.9,0,1,1-5.8,0Z"/><path class="cls-3" d="M1864.43,372.7v-.14c0-14.53,10.87-26.57,26-26.57a26.62,26.62,0,0,1,18.35,6.68,3.19,3.19,0,0,1,1.17,2.35,3,3,0,0,1-2.94,2.86,3.52,3.52,0,0,1-1.91-.66,21,21,0,0,0-14.74-5.87c-11.38,0-19.89,9.25-19.89,21.06v.15c0,11.88,8.58,21.2,19.89,21.2,6.38,0,10.86-2.2,15.26-6.23a2.62,2.62,0,0,1,1.83-.81,2.89,2.89,0,0,1,2.79,2.79,2.76,2.76,0,0,1-1,2.05c-5.07,4.62-10.64,7.56-19.08,7.56C1875.37,399.12,1864.43,387.45,1864.43,372.7Z"/><path class="cls-3" d="M1935.52,395.3V349.81a2.92,2.92,0,0,1,2.86-2.93h31.92a2.64,2.64,0,1,1,0,5.28h-29v17.53H1967a2.68,2.68,0,0,1,2.64,2.65A2.63,2.63,0,0,1,1967,375h-25.68v18h29.35a2.64,2.64,0,0,1,0,5.28h-32.29A2.93,2.93,0,0,1,1935.52,395.3Z"/><path class="cls-4" d="M360.75,47.65v-.21l-6.79,0h-.45L259,47.64a29.57,29.57,0,0,0-29.46,29.52V186.68c0,48-37.94,88.48-84.59,90.25A88.09,88.09,0,0,1,53.53,189V47.35A47.41,47.41,0,0,0,6.18,0H0V186.3A146.28,146.28,0,0,0,43.62,289.92c27.27,26.8,63,41.14,100.34,40.58C220.65,329.19,283,265.71,283,189V101.12L354,101a88.08,88.08,0,0,1,87.66,91.48c-1.81,46.59-42.28,84.5-90.23,84.5H305.47A29.55,29.55,0,0,0,276,306.49v99.79h6.17a47.41,47.41,0,0,0,47.36-47.35V330.5H351A146.3,146.3,0,0,0,454.51,287c26.81-27.21,41.26-62.77,40.71-100.13C494.12,112.53,434.36,51.33,360.75,47.65Z"/></svg>