<svg xmlns="http://www.w3.org/2000/svg" width="158.2" height="110.7" viewBox="0 0 158.2 110.7"><path fill="#009DC3" d="M23.2 66.4c-.5.3-1.5.8-3 1.3s-3.2.8-5.2.8-4-.3-5.8-1c-1.8-.7-3.4-1.7-4.7-3-1.5-1.3-2.5-3-3.3-5.1C.4 57.4 0 55 0 52.1c0-2.5.4-4.7 1.1-6.8.7-2.1 1.8-3.8 3.2-5.3 1.4-1.5 3.1-2.7 5.2-3.5 2-.8 4.3-1.3 6.9-1.3 2.8 0 5.3.2 7.4.6 2.1.4 3.9.8 5.3 1.1v30.3c0 5.2-1.3 9-4 11.3-2.7 2.3-6.8 3.5-12.3 3.5-2.1 0-4.1-.2-6-.5-1.9-.3-3.5-.8-4.9-1.2L3 75c1.2.5 2.7.9 4.5 1.3 1.8.4 3.6.6 5.5.6 3.6 0 6.2-.7 7.8-2.2 1.6-1.4 2.4-3.7 2.4-6.8v-1.5zm-.1-25.1c-.6-.2-1.4-.3-2.4-.5s-2.4-.2-4.1-.2c-3.3 0-5.8 1.1-7.5 3.2-1.8 2.1-2.6 5-2.6 8.5 0 2 .2 3.6.8 5 .5 1.4 1.2 2.5 2 3.5.8.9 1.8 1.6 2.9 2 1.1.4 2.3.7 3.4.7 1.6 0 3.1-.2 4.4-.7 1.3-.5 2.4-1 3.2-1.6V41.3zm16.5-5.4h6.1v33.9h-6.1zm16.5 1c1.4-.3 3.2-.7 5.5-1.1 2.3-.4 4.9-.6 7.9-.6 2.2 0 4 .3 5.5.9 1.5.6 2.7 1.4 3.7 2.6.3-.2.8-.5 1.4-.9.7-.4 1.5-.8 2.4-1.1 1-.4 2-.7 3.2-1 1.2-.3 2.4-.4 3.8-.4 2.6 0 4.7.4 6.4 1.1 1.7.8 2.9 1.8 3.9 3.2.9 1.4 1.6 3 1.9 5 .3 1.9.5 4 .5 6.3v19h-6.1V52.1c0-2-.1-3.7-.3-5.2-.2-1.4-.6-2.6-1.1-3.6-.5-1-1.3-1.7-2.2-2.1-.9-.5-2.1-.7-3.6-.7-2 0-3.7.3-5.1.8-1.3.5-2.2 1-2.7 1.5.3 1.1.6 2.4.8 3.7.2 1.3.3 2.8.3 4.2v19h-6.1V52.1c0-2-.1-3.7-.3-5.2-.2-1.4-.6-2.6-1.1-3.6-.5-1-1.3-1.7-2.2-2.1-.9-.5-2.1-.7-3.6-.7-.6 0-1.3 0-2 .1-.7 0-1.4.1-2 .2-.6.1-1.2.1-1.7.2s-.9.2-1 .2v28.6h-6.1V36.9zM42.6 21.4c-2.7 0-5 2.2-5 5 0 2.7 2.2 5 5 5s5-2.2 5-5c0-2.7-2.2-5-5-5M49.2 20.2l.2-.2c.5-.4.9-.8 1.4-1.3l.7-.6.7-.6c1.8-1.6 3.8-3.1 5.7-4.5 2-1.4 4.1-2.7 6.2-3.8 1.1-.6 2.2-1.1 3.3-1.6 1.1-.5 2.2-1 3.3-1.4 9-3.6 18.7-4.6 27.6-2.6 4.4 1 8.6 2.7 12.3 5.1 1.9 1.2 3.6 2.6 5.3 4.1 1.6 1.5 3.1 3.2 4.5 5.1 1.3 1.8 2.5 3.8 3.6 5.9 1 2.1 1.9 4.3 2.6 6.6.1.3.2.7.3 1h1.1c-.1-.5-.2-1-.4-1.5-.6-2.4-1.5-4.7-2.4-6.9-1-2.2-2.2-4.2-3.5-6.2-1.3-1.9-2.8-3.8-4.4-5.4-1.6-1.6-3.4-3.2-5.3-4.5-3.8-2.6-8.1-4.5-12.7-5.7C90-1 79.8-.1 70.2 3.5c-8.6 3.2-16.5 8.6-23 15 .8.5 1.4 1.1 2 1.7zm70.7 54.1l-.3.6c-.6 1.2-1.4 2.2-2.1 3.4-.7 1.1-1.4 2.2-2.2 3.2-1.5 2.1-3.2 4.1-4.9 5.9-.9.9-1.7 1.8-2.6 2.7l-1.3 1.3c-.5.4-.9.8-1.4 1.3-.9.8-1.8 1.6-2.7 2.3-.9.7-1.9 1.5-2.8 2.1-3.8 2.7-7.7 5-11.5 6.7-3.9 1.7-7.7 3-11.4 3.8-7.3 1.6-14.1 1.5-19.6.3-2.8-.6-5.3-1.4-7.5-2.4s-4.1-2-5.7-3.2c-3.3-2.2-5.4-4.5-6.8-6.2-.7-.8-1.2-1.5-1.5-1.9-.3-.4-.5-.7-.5-.7s-.2-.2-.5-.7c-.3-.5-.8-1.1-1.3-2.1-.9-1.5-2-3.7-3.1-6.6-.1.1-.2.2-.4.3 1.1 2.9 2.3 5.1 3.2 6.6.5 1 1 1.6 1.3 2.1.3.5.5.7.5.7s.2.2.5.7c.3.4.8 1.1 1.5 1.9 1.4 1.7 3.5 4 6.7 6.4 3.2 2.3 7.5 4.9 13 6.3 5.5 1.5 12.3 2.1 20 .7 3.8-.7 7.8-1.9 11.9-3.7 4.1-1.8 8.1-4.2 12.1-7.1 1-.7 1.9-1.5 2.9-2.3.9-.8 1.9-1.6 2.8-2.5.5-.4.9-.9 1.4-1.3.5-.4.9-.9 1.4-1.4.9-.9 1.8-1.9 2.7-2.9 1.7-2 3.4-4.1 4.9-6.3.8-1.1 1.5-2.2 2.2-3.4.7-1.2 1.4-2.3 2-3.5.2-.4.4-.8.6-1.1h-1.5zM117.1 38.2l-.1.1h-.1c-.1 0-.1 0-.2-.1s-.2-.1-.3-.2-.2-.1-.4-.2-.3-.1-.6-.1c-.2 0-.4 0-.6.1-.2.1-.3.1-.4.2s-.2.2-.2.3c-.1.1-.1.3-.1.4 0 .2 0 .4.1.5.1.1.2.2.4.3.2.1.3.2.5.2.2.1.4.1.6.2.2.1.4.2.6.2.2.1.4.2.5.3.2.1.3.3.4.5.1.2.1.4.1.7 0 .3-.1.6-.2.9s-.3.5-.5.7c-.2.2-.4.4-.7.5s-.6.2-1 .2c-.5 0-.9-.1-1.2-.2-.4-.2-.7-.4-1-.7l.3-.5.1-.1h.1s.1 0 .1.1.1.1.2.1.1.1.2.2.2.1.3.2c.1.1.2.1.4.1.1 0 .3.1.5.1s.4 0 .6-.1c.2-.1.3-.1.4-.3.1-.1.2-.2.3-.4.1-.2.1-.3.1-.5s0-.4-.1-.5c-.1-.1-.2-.2-.4-.3-.2-.1-.3-.2-.5-.2-.2-.1-.4-.1-.6-.2-.2-.1-.4-.1-.6-.2-.2-.1-.4-.2-.5-.3-.2-.1-.3-.3-.4-.5-.1-.2-.1-.5-.1-.8 0-.2 0-.5.1-.7.1-.2.2-.4.4-.6s.4-.3.7-.4.6-.2.9-.2c.4 0 .7.1 1.1.2.3.1.6.3.8.5v.5zm5.6 3.6c0 .1.1.2.1.3 0-.1.1-.2.1-.3 0-.1.1-.2.1-.2l2.4-4.3c0-.1.1-.1.1-.1h.9v7h-.8v-5.6l-2.4 4.4c-.1.1-.2.2-.3.2h-.1c-.2 0-.3-.1-.3-.2l-2.5-4.4v5.6h-.8v-7h.9l.1.1 2.4 4.3c0 .1.1.2.1.2zm11.6 2.3h-.7c-.1 0-.2 0-.2-.1s-.1-.1-.1-.2l-.7-1.7h-3.2l-.7 1.7c0 .1-.1.1-.1.2-.1 0-.1.1-.2.1h-.7l2.8-7h1l2.8 7zm-4.6-2.6h2.6l-1.1-2.9c0-.1-.1-.2-.1-.3 0-.1-.1-.2-.1-.4 0 .1-.1.2-.1.4 0 .1-.1.2-.1.3l-1.1 2.9zm6.7-.3v2.9h-.9v-7h2c.4 0 .8 0 1.2.1s.6.2.8.4c.2.2.4.4.5.6.1.2.2.5.2.8 0 .2 0 .5-.1.7l-.3.6c-.1.2-.3.3-.5.4s-.5.2-.7.3l.3.3 2 2.8h-.8c-.2 0-.3-.1-.4-.2l-1.8-2.5-.2-.2c-.1 0-.2-.1-.3-.1h-1zm0-.7h1c.3 0 .5 0 .7-.1s.4-.2.5-.3c.1-.1.2-.3.3-.4.1-.2.1-.4.1-.6 0-.4-.1-.7-.4-.9-.3-.2-.7-.3-1.2-.3h-1v2.6zm10.3-3.4v.8h-2.3v6.2h-.9v-6.2h-2.3v-.8h5.5zm-28.6 19.4c-.4.1-.8.2-1.3.2-.6 0-1.1-.1-1.5-.3-.5-.2-.8-.4-1.2-.7-.3-.3-.6-.7-.7-1.1-.2-.4-.3-.9-.3-1.5 0-.5.1-1 .3-1.5s.4-.8.7-1.1c.3-.3.7-.6 1.1-.7s.9-.3 1.5-.3c.3 0 .5 0 .8.1.2 0 .5.1.7.2l.6.3c.2.1.3.2.5.4l-.3.4c0 .1-.1.1-.2.1h-.2c-.1 0-.2-.1-.3-.2-.1-.1-.2-.1-.4-.2-.1-.1-.3-.1-.5-.2-.2 0-.4-.1-.7-.1-.4 0-.8.1-1.1.2-.3.1-.6.3-.8.6-.2.2-.4.5-.5.9-.1.3-.2.7-.2 1.1 0 .4.1.8.2 1.2.1.3.3.6.5.9.2.2.5.4.9.6s.7.2 1.1.2h.5s.3 0 .4-.1.3-.1.4-.1c.1-.1.2-.1.4-.2V54h-1.1c-.1 0-.1 0-.2-.1l-.1-.1v-.5h2.2V56c-.4.2-.8.4-1.2.5zm7.1-6.9v.8h-3.4v2.3h2.7v.7h-2.7v2.4h3.4v.8h-4.3v-7h4.3zm8 3.5c0 .5-.1 1-.2 1.4s-.4.8-.7 1.1c-.3.3-.7.6-1.1.7s-.9.3-1.4.3c-.5 0-1-.1-1.4-.3-.4-.2-.8-.4-1.1-.7-.3-.3-.5-.7-.7-1.1s-.2-.9-.2-1.4.1-1 .2-1.4c.2-.4.4-.8.7-1.1.3-.3.7-.6 1.1-.7.4-.2.9-.3 1.4-.3.5 0 1 .1 1.4.3s.8.4 1.1.7c.3.3.5.7.7 1.1.1.4.2.9.2 1.4zm-1 0c0-.4-.1-.8-.2-1.2-.1-.3-.3-.6-.5-.9-.2-.2-.5-.4-.8-.5-.3-.1-.7-.2-1-.2-.4 0-.7.1-1 .2s-.6.3-.8.5c-.2.2-.4.5-.5.9-.1.3-.2.7-.2 1.2s.1.8.2 1.2c.1.3.3.6.5.9.2.2.5.4.8.5.3.1.6.2 1 .2s.7-.1 1-.2c.3-.1.6-.3.8-.5.2-.2.4-.5.5-.9s.2-.7.2-1.2zm-17.7 16h-1v-7h1v7zm2.6-7c.1 0 .1 0 0 0 .1 0 .1.1.1.1l.1.1 4.1 5.3v-5.4h.8v7h-.7c-.1 0-.1-.1-.1-.1l-4.1-5.3v5.4h-.8v-7h.5l.1-.1zm10.8 1.1l-.1.1h-.1c-.1 0-.1 0-.2-.1s-.2-.1-.3-.2c-.1-.1-.2-.1-.4-.2s-.3-.1-.6-.1c-.2 0-.4 0-.6.1-.2.1-.3.1-.4.2s-.2.2-.2.3c-.1.1-.1.3-.1.4 0 .2 0 .4.1.5.1.1.2.2.4.3.2.1.3.2.5.2.2.1.4.1.6.2.2.1.4.2.6.2.2.1.4.2.5.3.2.1.3.3.4.5.1.2.1.4.1.7 0 .3-.1.6-.2.9s-.3.5-.5.7c-.2.2-.4.4-.7.5s-.6.2-1 .2c-.5 0-.9-.1-1.2-.2-.4-.2-.7-.4-1-.7l.3-.5.1-.1h.1s.1 0 .1.1.1.1.2.1.1.1.2.2.2.1.3.2c.1.1.2.1.4.1.1 0 .3.1.5.1s.4 0 .6-.1c.2-.1.3-.1.4-.3.1-.1.2-.2.3-.4.1-.2.1-.3.1-.5s0-.4-.1-.5c-.1-.1-.2-.2-.4-.3-.2-.1-.3-.2-.5-.2-.2-.1-.4-.1-.6-.2s-.4-.1-.6-.2c-.2-.1-.4-.2-.5-.3s-.3-.3-.4-.5c-.1-.2-.1-.5-.1-.8 0-.2 0-.5.1-.7.1-.2.2-.4.4-.6s.4-.3.7-.4c.3-.1.6-.2.9-.2.4 0 .7.1 1.1.2.3.1.6.3.8.5v.5zm3 5.9h-1v-7h1v7zm6.6-.1c-.4.1-.8.2-1.3.2-.6 0-1.1-.1-1.5-.3-.5-.2-.8-.4-1.2-.7-.3-.3-.6-.7-.7-1.1-.2-.4-.3-.9-.3-1.5 0-.5.1-1 .3-1.5.2-.4.4-.8.7-1.1.3-.3.7-.6 1.1-.7s.9-.3 1.5-.3c.3 0 .5 0 .8.1s.5.1.7.2l.6.3c.2.1.3.2.5.4l-.3.4c0 .1-.1.1-.2.1h-.2c-.1 0-.2-.1-.3-.2-.1-.1-.2-.1-.4-.2-.1-.1-.3-.1-.5-.2-.2 0-.4-.1-.7-.1-.4 0-.8.1-1.1.2s-.6.3-.8.6c-.2.2-.4.5-.5.9-.1.3-.2.7-.2 1.1 0 .4.1.8.2 1.2.1.3.3.6.5.9.2.2.5.4.9.6.3.1.7.2 1.1.2h.5s.3 0 .4-.1.3-.1.4-.1c.1 0 .2-.1.4-.2v-1.5h-1.1c-.1 0-.1 0-.2-.1l-.1-.1v-.5h2.2v2.7c-.4.1-.8.3-1.2.4zm8.6.1h-1v-3.2h-3.8v3.2h-1v-7h1v3.1h3.8v-3.1h1v7zm6.8-7v.8h-2.3v6.2h-.9v-6.2h-2.3v-.8h5.5zm4.9 1.1l-.1.1h-.1c-.1 0-.1 0-.2-.1s-.2-.1-.3-.2c-.1-.1-.2-.1-.4-.2s-.4-.1-.6-.1c-.2 0-.4 0-.6.1-.2.1-.3.1-.4.2s-.2.2-.2.3c-.1.1-.1.3-.1.4 0 .2 0 .4.1.5.1.1.2.2.4.3s.3.2.5.2.4.1.6.2c.2.1.4.2.6.2s.4.2.5.3c.2.1.3.3.4.5.1.2.1.4.1.7 0 .3-.1.6-.2.9s-.3.5-.5.7-.4.4-.7.5-.6.2-1 .2c-.5 0-.9-.1-1.2-.2-.4-.2-.7-.4-1-.7l.3-.5.1-.1h.1s.1 0 .1.1.1.1.2.1l.2.2c.1.1.2.1.3.2.1.1.2.1.4.1.1 0 .3.1.5.1s.4 0 .6-.1c.2-.1.3-.1.4-.3.1-.1.2-.2.3-.4.1-.2.1-.3.1-.5s0-.4-.1-.5c-.1-.1-.2-.2-.4-.3-.2-.1-.3-.2-.5-.2-.2-.1-.4-.1-.6-.2-.2-.1-.4-.1-.6-.2-.2-.1-.4-.2-.5-.3s-.3-.3-.4-.5c-.1-.2-.1-.5-.1-.8 0-.2 0-.5.1-.7.1-.2.2-.4.4-.6.2-.2.4-.3.7-.4.3-.1.6-.2.9-.2.4 0 .7.1 1.1.2.3.1.6.3.9.5l-.1.5z"/></svg>