<?xml version="1.0" encoding="UTF-8"?>
<svg xmlns="http://www.w3.org/2000/svg" xmlns:xlink="http://www.w3.org/1999/xlink" viewBox="0 0 153.84 32">
  <defs>
    <style>
      .cls-1 {
        clip-path: url(#clippath);
      }

      .cls-2 {
        fill: none;
      }

      .cls-2, .cls-3, .cls-4 {
        stroke-width: 0px;
      }

      .cls-3 {
        fill: #423c38;
        isolation: isolate;
        opacity: .3;
      }

      .cls-4 {
        fill: #117e95;
      }
    </style>
    <clipPath id="clippath">
      <rect class="cls-2" width="153.81" height="32"/>
    </clipPath>
  </defs>
  <g class="cls-1">
    <g>
      <path class="cls-4" d="M.91,22.46l5.13-6.9c-.4-.09-.82-.15-1.19-.28-1.49-.43-2.67-1.56-3.16-3.07-.21-.77-.39-1.53-.49-2.3-.21-1.2-.39-2.42-.58-3.65-.24-1.2-.43-2.45-.64-3.68,0-.06,0-.15.03-.21.15,0,.3-.03.46-.03h3.74c.49,0,.52,0,.58.52.3,1.69.61,3.41.91,5.09.21,1.17.43,2.3.61,3.47.09.67.55,1.23,1.18,1.44.24.15.58.06.7-.21.61-.86,1.28-1.66,1.88-2.49,1.79-2.42,3.59-4.82,5.38-7.24.24-.4.7-.61,1.15-.58,1.4.03,2.83,0,4.22,0,.18,0,.36,0,.64.03-.09.18-.18.37-.3.52-2.13,2.82-4.22,5.68-6.35,8.5-1.55,2.09-3.1,4.17-4.68,6.26-.49.64-1.06,1.26-1.61,1.87-.27.31-.58.61-.88.89-1.28,1.2-2.95,1.93-4.68,2.06-.67.06-1.34.09-2.01.15l-.09-.15"/>
      <path class="cls-4" d="M118.47,15.49h-4.41c-.58,0-1.16-.09-1.73-.21-2.19-.52-3.37-2.02-3.89-4.11-.27-1.26-.15-2.55.36-3.71.58-1.47,1.61-2.73,2.92-3.62.82-.64,1.79-1.07,2.83-1.29.49-.09,1-.15,1.52-.18,3.01,0,6.02-.03,8.99,0,1.21-.03,2.4.31,3.43.98,1.15.8,1.94,2.02,2.22,3.44.3,1.6,0,3.28-.91,4.66-.06.09-.12.18-.18.28-1,1.56-2.49,2.76-4.25,3.41-.73.28-1.49.43-2.25.43h-4.68M120.26,4.97h-3.01c-1.94.55-3.34,1.72-3.86,3.74-.42,1.75.61,3.53,2.37,3.96.27.06.55.09.82.09h4.68c.3,0,.58-.03.85-.12,1.46-.4,2.61-1.17,3.19-2.61.18-.49.33-1.01.46-1.53.15-.58.06-1.2-.21-1.72-.58-1.26-1.61-1.87-2.98-1.9h-2.31"/>
      <path class="cls-4" d="M30.2,15.49h-4.68c-1.09,0-2.19-.31-3.1-.98-1.28-.89-2.1-2.3-2.25-3.87-.18-1.87.36-3.74,1.58-5.18,1.15-1.53,2.86-2.61,4.74-2.98.49-.09,1-.15,1.52-.15h8.9c1.12,0,2.22.28,3.19.86.67.4,1.22.95,1.64,1.6,1.19,1.96,1.15,3.99.21,6.01-.85,1.81-2.31,3.22-4.13,4.02-1,.46-2.1.68-3.19.68h-4.44ZM30.66,12.82c.85,0,1.67.03,2.52,0,1.28-.06,2.46-.67,3.28-1.66.61-.74.97-1.63,1.06-2.58.18-.83,0-1.69-.55-2.36-.64-.83-1.64-1.29-2.67-1.26h-4.71c-.21,0-.43,0-.64.06-1.55.37-2.83,1.41-3.49,2.85-.36.8-.43,1.69-.21,2.55.27,1.41,1.91,2.45,3.13,2.39.76-.03,1.55,0,2.31,0"/>
      <path class="cls-4" d="M67.7,12.82h13.1c.61.06,1.22-.18,1.64-.61.67-.74.36-1.75-.58-1.96-.21-.03-.43-.06-.64-.06h-9.78c-1.37,0-2.28-.68-2.98-1.75-.4-.64-.4-1.41-.3-2.15.24-1.99,2.19-3.71,4.13-3.96h12.06c.85,0,1.67.28,2.31.86.52.46.85,1.1,1,1.78h-12.64c-.55,0-1.09.21-1.43.67-.46.52-.4,1.35.15,1.69.24.12.52.18.79.18h9.84c.91-.06,1.79.28,2.46.86.64.58,1.03,1.41,1.09,2.27.15,2.39-1.91,4.45-4.07,4.69-.55.06-1.09.09-1.64.09h-10.82c-.85.06-1.7-.18-2.4-.67-.67-.46-1.12-1.17-1.28-1.96"/>
      <path class="cls-4" d="M50.71,2.42v.21c-.18,1.17-.43,2.36-.58,3.53-.18,1.23-.52,2.45-.49,3.71.09,1.53,1.25,2.79,2.73,2.98,2.01.21,4.01.09,6.05.09.85,0,1.43-.4,1.61-1.23.21-.92.43-1.87.58-2.79.15-.77.24-1.53.33-2.3.18-1.14.36-2.27.55-3.44,0-.06,0-.15.03-.21.12-.61.15-.64.79-.64h4.19v.55c-.43,2.64-.85,5.25-1.31,7.88-.12.68-.15,1.38-.49,2.03-.73,1.41-2.07,2.36-3.62,2.58-.49.06-.97.12-1.46.12-3.28,0-6.56.06-9.84,0-1.98,0-3.8-1.1-4.65-2.91-.3-.64-.49-1.35-.49-2.09-.06-1.26.18-2.49.4-3.71.21-1.23.4-2.42.61-3.65,0-.15.06-.28.09-.43,0-.21.21-.37.43-.34h4.34c.06,0,.09.03.15.06"/>
      <path class="cls-4" d="M147.73,15.43c.15-.95.27-1.84.43-2.73.18-1.2.46-2.39.61-3.59.12-1.01.12-2.02-.55-2.91-.46-.58-1.06-1.01-1.79-1.2-.43-.09-.85-.15-1.31-.12h-4.83c-.27,0-.55.03-.82.12-.49.12-.88.49-1,.98-.21.89-.4,1.75-.55,2.64-.3,1.75-.58,3.53-.85,5.28-.06.37-.09.77-.15,1.14-.03.28-.15.46-.46.43h-4.35c-.09,0-.18-.03-.24-.09.09-.55.15-1.07.24-1.63.4-2.33.79-4.66,1.18-7,.12-.8.27-1.6.76-2.27.73-1.04,1.85-1.78,3.1-2.06.42-.09.82-.12,1.25-.12h10.33c1.15,0,2.25.43,3.13,1.17,1.76,1.35,2.16,3.19,1.91,5.28-.12.92-.3,1.84-.46,2.76-.15,1.29-.88,2.42-1.98,3.1-.49.28-1,.49-1.52.61-.58.12-1.15.21-1.73.25-.12,0-.21,0-.33-.06"/>
      <path class="cls-4" d="M95.96,4.97c-.18,1.01-.33,1.96-.49,2.88-.12.55-.18,1.14-.21,1.69,0,1.78,1.37,3.25,3.13,3.28h9.11c-.09.15-.18.31-.27.46-.91,1.14-1.97,2.02-3.49,2.12-.49,0-.97.09-1.46.09-2.13,0-4.28.06-6.41,0-1.94-.06-3.62-.8-4.71-2.49-.73-1.07-1.03-2.39-.82-3.68.43-2.3.79-4.63,1.18-6.93.09-.61.18-1.23.27-1.84.06-.43.12-.52.55-.52,1.34-.03,2.7-.03,4.1-.03.09,0,.21,0,.3.06-.09.74-.18,1.44-.3,2.24,1.22.06,2.34,0,3.46,0h3.46c-.03.28-.06.46-.09.64-.09.52-.15,1.01-.24,1.53-.06.43-.15.49-.58.49h-6.5Z"/>
      <path class="cls-3" d="M108.38,21.91c-.3-.46-.76-.83-1.25-1.04-.58-.25-1.22-.37-1.85-.34-.7,0-1.43.12-2.07.4-.58.25-1.06.64-1.43,1.17-.33.52-.52,1.14-.52,1.75s.15,1.26.52,1.78c.36.52.85.92,1.43,1.17.64.28,1.37.43,2.07.4.88.03,1.79-.21,2.52-.71.64-.43,1.06-1.1,1.18-1.87h-4.38v-1.23h6.44v1.2c-.12.74-.46,1.44-.97,1.99-.55.64-1.25,1.14-2.04,1.44-.88.37-1.82.55-2.76.55-1.03,0-2.07-.18-3.01-.61-.85-.37-1.61-.95-2.16-1.69-.52-.71-.82-1.56-.79-2.42,0-.89.27-1.75.79-2.42.58-.74,1.31-1.32,2.16-1.69.94-.4,1.97-.61,3.01-.61,1.15,0,2.28.21,3.31.74.91.43,1.64,1.17,2.1,2.06h-2.31ZM115.64,22.21c.3-.37.67-.67,1.12-.86.52-.21,1.09-.34,1.64-.31v1.56h-.49c-.61-.03-1.22.12-1.7.46-.4.31-.58.83-.58,1.56v3.87h-1.91v-7.33h1.91v1.07-.03ZM125.03,28.63c-.82,0-1.61-.15-2.37-.46-.67-.28-1.25-.74-1.67-1.32-.39-.58-.61-1.29-.61-1.99s.21-1.41.61-1.99c.43-.58,1.03-1.04,1.7-1.32.76-.31,1.58-.49,2.4-.46.82,0,1.64.15,2.4.46.67.28,1.28.74,1.7,1.32.43.58.64,1.26.61,1.99,0,.71-.21,1.41-.64,1.99-.46.58-1.06,1.04-1.73,1.35-.76.34-1.58.49-2.43.46l.03-.03ZM125.03,27.31c.49,0,.94-.09,1.4-.28.43-.18.79-.46,1.06-.83.27-.4.43-.86.4-1.35,0-.49-.12-.95-.4-1.35-.24-.37-.61-.64-1.03-.83-.43-.18-.91-.28-1.37-.28s-.94.09-1.37.28c-.39.18-.76.46-1,.83-.24.4-.39.86-.36,1.35-.03.71.24,1.38.76,1.84.55.43,1.22.67,1.92.64v-.03ZM140.95,21.17v7.33h-1.91v-.86c-.33.34-.73.55-1.18.71-.49.18-1.03.28-1.55.25-.67,0-1.34-.12-1.94-.37-.55-.21-1-.58-1.37-1.07-.33-.49-.52-1.1-.49-1.72v-4.33h1.88v4.08c-.03.58.18,1.14.61,1.5.49.37,1.09.55,1.7.52.61.03,1.22-.15,1.7-.52.43-.37.67-.95.64-1.5v-4.08h1.91v.06ZM146.21,22.24c.36-.37.82-.67,1.34-.86.61-.25,1.25-.37,1.88-.34.76,0,1.52.15,2.22.46.64.28,1.18.74,1.58,1.32.4.58.58,1.26.58,1.96s-.18,1.38-.58,1.96c-.4.58-.94,1.07-1.58,1.35-.7.34-1.46.49-2.22.49-.64,0-1.28-.09-1.88-.34-.49-.18-.94-.49-1.34-.86v4.57h-1.92v-10.83h1.92v1.1ZM151.86,24.79c0-.46-.12-.92-.39-1.32-.27-.37-.64-.67-1.03-.83-.43-.18-.91-.28-1.4-.28s-.94.09-1.37.31c-.43.18-.79.49-1.03.86-.27.4-.39.86-.39,1.32s.12.95.39,1.32c.27.37.61.67,1.03.86s.88.31,1.37.31.94-.09,1.4-.31c.43-.18.79-.49,1.03-.86.27-.4.39-.86.39-1.32v-.06Z"/>
    </g>
  </g>
</svg>